<svg width="40" height="72" viewBox="0 0 40 72" fill="none" xmlns="http://www.w3.org/2000/svg">
<path d="M7.04403 3.52513C6.72668 3.20021 6.39938 2.966 6.50184 3.10447C5.8926 2.40628 5.81799 2.45133 5.83491 2.26722C5.46005 1.80306 4.93676 1.42862 5.37887 1.94134L4.2159 0.683623L4.96481 1.38337C4.90771 1.24431 4.60846 0.964842 4.30702 0.679545L4.19441 0.572535L4.16635 0.545927L4.15262 0.532721L4.09155 0.47873L4.03185 0.431538L3.97355 0.384926L3.94491 0.361815C3.93675 0.35463 3.90889 0.338122 3.89158 0.327051C3.81472 0.27931 3.73564 0.235048 3.65461 0.194405C3.57562 0.153815 3.51772 0.142162 3.45246 0.117497C3.38958 0.0982701 3.33149 0.0730226 3.27518 0.0635063C3.16336 0.0405894 3.06884 0.0209748 3 0L3.1355 0.0100979C3.25484 0.0171399 3.37271 0.039472 3.48608 0.0765187C3.55811 0.0990472 3.62894 0.115555 3.72544 0.167798C3.77101 0.190909 3.81756 0.215963 3.86392 0.242958L3.93336 0.284713C3.95605 0.29889 3.98311 0.315981 3.98848 0.321808L4.119 0.42707L4.12736 0.433867L4.18665 0.485916L4.20177 0.501064L4.23241 0.531362L4.29429 0.592344L4.95348 1.24392L4.91547 1.15148C5.18706 1.4762 5.78676 2.0365 6.00323 2.2245C5.98493 2.17944 6.0283 2.17711 5.7969 1.94619C7.40536 3.50338 6.07924 2.5129 7.38009 3.8382C7.29931 3.75566 7.19485 3.65622 7.04403 3.52513ZM8.6135 4.64961L9.06536 5.29944L10.0306 6.18757C10.0041 6.23399 10.6571 6.92965 10.1623 6.51016C10.0777 6.41635 9.90997 6.23108 9.76234 6.09338C9.78701 6.27341 10.9691 7.34915 10.6127 7.15902C9.89247 6.41461 9.76114 6.3208 9.36958 5.81197C8.68254 5.15573 8.1692 4.69059 7.8228 4.40918C7.63318 4.2004 7.65368 4.12505 7.40715 3.86519L7.57806 4.03804L7.7257 3.94793C7.91412 4.18137 8.12821 4.36684 8.363 4.60086L7.40576 3.39287C7.87214 3.62864 8.8843 4.74536 9.36162 5.12038C8.72651 4.69797 9.73727 5.58513 8.6135 4.64961ZM7.40715 3.86558L7.38049 3.83897L7.40715 3.86558ZM14.8772 57.4496C15.1126 57.224 15.2097 57.1845 15.2577 57.1655L12.6285 59.7276C12.6792 59.6165 13.3967 58.8398 12.8724 59.3148C13.063 59.0606 13.7797 58.4195 13.9218 58.3638L13.6834 58.5029C14.3504 57.9723 14.6424 57.4504 14.2115 57.8002L14.2632 57.7511L16.1767 56.3461C15.575 56.9604 15.621 56.7291 14.8772 57.4496ZM4.69979 4.24254C5.02908 4.58552 5.05972 4.63757 5.00938 4.61116C4.90181 4.49185 4.79854 4.36891 4.69979 4.24254ZM16.6242 56.0179L17.2235 55.5776C16.9933 55.7635 16.7817 55.9179 16.6242 56.0179ZM11.8581 58.4677C11.8531 58.4648 11.8439 58.4669 11.8525 58.4483L12.1263 58.2552C12.1242 58.2571 12.1222 58.259 12.1203 58.2611C12.024 58.3368 11.9377 58.4046 11.8581 58.4677ZM28.8223 44.6554L29 44.4923C28.9367 44.5529 28.8778 44.6063 28.8223 44.6554ZM4.31777 65L5.55715 63.9295C5.36773 64.0486 5.94135 63.5085 5.65583 63.7102C5.75014 63.6287 6.18091 63.2344 6.08441 63.3624L5.84385 63.5929C6.55815 63.0878 6.22289 63.4888 7.31901 62.5652C6.74339 63.241 6.41211 63.4601 6.03149 63.7442L5.71234 64.0293L4.60369 64.8429L4.31777 65ZM20.4157 20.6738L20.4207 20.6938C20.4117 20.6796 20.4121 20.675 20.4157 20.6738ZM20.4404 20.7742L20.4207 20.6936C20.4678 20.7703 20.6931 21.0197 20.4404 20.7742ZM16.3675 56.1442C16.4017 56.1465 16.4915 56.1024 16.6242 56.0181L16.1767 56.3461L16.3675 56.1442ZM15.2612 56.8043L14.2632 57.7511L13.8496 58.0552C14.2453 57.7066 14.6989 57.2896 15.2612 56.8043Z" fill="#202020"/>
<path d="M26.9889 46.5713C29.0189 44.58 26.3794 46.9503 27.2777 46.001C27.8506 45.4575 28.1024 45.3149 28.4683 44.9849C26.8237 46.5298 28.8641 44.9475 27.2232 46.5233C27.5509 46.3931 28.4929 45.4728 29.0132 44.9018C29.5377 44.1911 28.4028 45.3711 28.1696 45.4185C28.832 44.7898 28.7352 44.9204 29.0626 44.6999C30.056 43.667 31.2803 42.7237 31.7553 41.9891C32.5114 41.2779 32.5084 41.3713 32.9809 41C33.1665 41.0172 31.9409 42.1416 31.7483 42.4924C31.7961 42.4276 31.8891 42.3009 31.8429 42.3185L31.2287 42.9725C31.7967 42.3367 31.0436 42.955 30.7131 43.2682C30.4764 43.4997 30.0057 43.9594 30.0979 43.9235L30.4751 43.5918C30.0499 44.0787 29.3925 44.5221 28.9646 45.0573C28.9621 45.1051 29.1554 44.934 29.1973 44.9206C28.5871 45.3901 28.0695 45.9134 27.2199 46.662L27.7845 46.2999C27.0328 46.8267 25.6142 48.3021 24.6677 49.3613C24.762 49.2334 24.951 49.0215 24.8112 49.1221C24.1968 49.6858 23.8199 50.1986 24.1462 49.979C23.4862 50.4702 22.019 52.2366 21.1249 52.9114L17 56C17.1567 55.8717 17.3091 55.7383 17.457 55.6001C17.6972 55.185 17.8849 55.0195 17.226 55.5096C17.8377 54.9935 17.6929 55.2791 18.5455 54.4375C18.168 54.7248 17.9826 54.7077 18.7855 53.8875C20.907 51.9509 22.5055 50.8592 24.533 49.0963C24.535 48.9588 26.045 47.4934 26.7536 46.7562C26.404 46.9587 25.8455 47.4734 25.2727 48.0144L26.6631 46.6103L26.9889 46.5713Z" fill="#202020"/>
<path d="M22.2049 50.6099C22.2536 50.5536 22.3041 50.4986 22.3562 50.4449C22.332 50.4783 22.2876 50.528 22.2049 50.6099ZM25.4091 47.8218C25.3991 47.8262 25.3995 47.8218 25.3941 47.8214L25.5847 47.6546L25.4091 47.8218ZM16.3919 55.3883C16.2455 55.4867 16.1466 55.5681 16 55.6663L16.2874 55.4336C16.3863 55.3593 16.4383 55.3289 16.3919 55.3883ZM16.0919 55.8993L16.1887 55.8638C16.1367 55.9163 16.1003 55.9534 16.0547 56C16.0241 55.999 16.0265 55.9721 16.0919 55.8993ZM34.7827 38.1731L35 38C34.8771 38.1117 34.8185 38.1545 34.7827 38.1731Z" fill="#202020"/>
<path d="M29.2473 43.7218C28.523 44.408 29.0576 43.7041 28.0419 44.6838L28.3336 44.3901C27.5607 45.0504 26.301 46.306 25.432 47.138C25.571 47.084 24.9576 47.6933 25.1232 47.6577C24.5165 48.2143 23.9164 48.7661 23.5451 48.9964C23.2004 49.3713 22.5852 49.8523 22.1469 50.3288C22.3046 50.1013 21.3518 50.8422 22.5332 49.7932C22.4366 49.8766 22.4851 49.8126 22.3892 49.8945C23.0653 49.1368 23.4504 48.9427 24.0807 48.3365C24.4188 47.9362 23.4035 48.8707 23.7431 48.5131C24.5646 47.7888 26.1626 46.0876 26.2551 46.2774C26.8373 45.7352 26.8842 45.6282 27.0284 45.4382C28.087 44.7133 30.3194 42.1331 30.508 42.3311C30.17 42.6424 29.6359 43.166 29.1094 43.5931L29.2473 43.7218ZM17.5177 54.2083C17.5637 54.1627 17.6096 54.1171 17.6555 54.0715L17.5177 54.2083ZM9.03274 63.5017L9.46161 63.3362C11.2011 61.7161 11.7824 61.0848 13.2818 59.6471C13.3783 59.5199 13.1859 59.6841 13.0882 59.7673C14.1534 58.7674 15.6981 57.2242 16.5218 56.5431C16.855 56.2195 17.6916 55.333 17.3217 55.6169C17.4956 55.4709 17.6926 55.3021 17.8755 55.1175C17.8789 55.0251 17.4436 55.509 17.395 55.4827C17.5403 55.3367 17.589 55.2721 17.6376 55.2532C17.3483 55.4557 17.7397 54.852 16.579 55.9781C16.2367 56.5172 17.3985 55.211 17.2518 55.5831C16.8669 55.9563 16.8654 55.8686 16.8179 55.8865C16.3288 56.3638 16.3717 56.3803 16.4251 56.3813C16.1997 56.5275 15.6326 57.1744 15.3164 57.3714C14.3506 58.2859 15.4578 57.4078 14.8319 58.0093L14.351 58.2404L13.3354 59.2651C11.7895 60.6758 13.3416 58.8561 11.555 60.4494C11.8439 60.292 11.2605 61.0599 10.4857 61.8563C10.9686 61.3985 11.9321 60.6205 12.5139 59.9894C11.7375 60.9216 13.7237 58.8431 13.3801 59.384C12.8984 59.7502 12.174 60.4362 11.642 61.0033L11.8366 60.837C11.2542 61.4242 10.6773 61.7371 9.90438 62.5765C9.49223 62.9668 9.60283 62.926 9.70294 62.8838C9.33934 63.1996 9.00716 63.4748 9.03274 63.5017ZM9.94709 62.6677L10.4811 62.1288C10.3715 62.2733 10.1675 62.4693 9.94709 62.6677ZM15.7424 11.805L15.5667 11.6542C15.6084 11.684 15.6739 11.7421 15.7424 11.805ZM15.0156 60.0003L15.328 59.6911C15.2261 59.7962 15.1219 59.8993 15.0156 60.0003ZM22.5125 53.5324L23.0028 53.1135C22.847 53.2612 22.6833 53.4011 22.5125 53.5324ZM19.5217 15.4378L19.5378 15.4518L19.6043 15.5284L19.5217 15.4378ZM36.4661 39.5149C36.5392 39.4206 36.6162 39.3292 36.6969 39.2408C36.6959 39.2648 36.6083 39.3661 36.4661 39.5149ZM22.4223 53.6094L22.448 53.5804L22.5125 53.5326L22.4223 53.6094ZM12.2413 63.3591L12.0268 63.5429C12.0954 63.4786 12.167 63.4173 12.2413 63.3591ZM12.3447 62.5981C12.2687 62.6656 12.1954 62.7292 12.136 62.7764L12.3447 62.5981ZM1 68L1.44297 67.6058C1.23186 67.8059 1.10012 67.9201 1 68ZM11.297 63.7623C11.2667 63.781 11.2363 63.7994 11.2146 63.8101C11.2772 63.757 11.3121 63.7368 11.297 63.7623ZM12.677 9.54035L12.7024 9.56563L12.699 9.58955L12.677 9.54035ZM11.8175 8.37089L11.4533 8C11.5791 8.11948 11.7006 8.24319 11.8175 8.37089ZM36.6532 32.0551C36.5231 31.9631 36.2376 31.7278 36.3412 31.8662C36.1506 31.6336 36.2259 31.5885 36.6532 32.0551ZM13.9967 12.2737C13.9451 12.1926 13.8734 12.099 13.8009 12.0053C13.9409 12.1745 14.0646 12.3219 13.9967 12.2737ZM13.8011 12.0053L13.5974 11.7562C13.6672 11.8377 13.7351 11.9208 13.8011 12.0053ZM37.9769 35.4802C37.9956 35.5022 38.001 35.5376 37.9998 35.586C37.9722 35.5699 37.9781 35.5329 37.9769 35.4802Z" fill="#202020"/>
<path d="M11.4902 8.0356C11.4524 7.94288 9.91609 6.30957 11.2743 7.61816C11.3105 7.48045 10.4531 6.72934 10.1163 6.35535C10.3973 6.59124 10.0435 6.17244 10.1537 6.21919C10.321 6.40463 10.5068 6.6374 10.8069 6.92043C10.9823 7.01373 10.5638 6.54819 10.2008 6.22036C10.6759 6.59669 9.72652 5.61612 10.369 6.17848C11.6351 7.4861 12.52 8.42011 13.3038 9.4447C12.5855 8.69593 11.7845 7.85581 11.1426 7.29364L11.3212 7.61953C12.0738 8.22844 12.4468 8.69418 13.1283 9.35101L11.5733 7.89983C10.8006 7.26384 11.2607 7.74536 11.806 8.30947C11.6675 8.17487 11.5385 8.05683 11.4902 8.0356ZM11.8426 9.69773L11.8149 9.67494C11.7956 9.6504 11.7696 9.62157 11.7589 9.60443L11.8426 9.69773ZM3.00039 69.9941L3.15948 69.8944C3.03798 69.9887 2.99544 70.0128 3.00039 69.9941ZM13.1148 10.2241L13.1136 10.2231C13.1231 10.2338 13.1255 10.2363 13.1148 10.2241ZM3.93715 69.0091C3.93061 69.0118 3.92389 69.014 3.9134 69.0198C3.92725 69.0105 3.92962 69.0128 3.93715 69.0091ZM6.44369 69.7729C6.44132 69.7824 6.4427 69.7873 6.43221 69.8046C6.3588 69.8685 6.38888 69.8321 6.44369 69.7729ZM3.94684 69.0138C3.94447 69.0114 3.94427 69.0071 3.93715 69.0093C3.94209 69.0091 3.95021 69.0062 3.94684 69.0138ZM19.9658 53.7949C19.9658 53.7949 19.9292 53.8568 19.8635 53.9462C19.8261 53.969 19.8481 53.9312 19.9658 53.7949ZM16.9715 56.9643L16.9232 57.0284L16.9715 56.9643ZM37.6377 32.7873C37.761 32.9064 37.8818 33.028 38 33.1521C37.8756 33.0341 37.7547 32.9124 37.6377 32.7873ZM3.9134 69.0198C3.87283 69.0438 3.81842 69.081 3.73195 69.1458C3.82673 69.074 3.87956 69.0387 3.9134 69.0198ZM25.0875 49.5103L24.9837 49.596L25.0367 49.5364L25.0875 49.5103ZM26.6528 47.8591C26.5889 47.905 26.5544 47.921 26.5156 47.9442C27.1259 47.4056 28.1547 46.3251 28.3617 46.2811C28.1634 46.4724 27.1928 47.5213 27.4136 47.3972C26.99 47.7745 26.4505 48.4171 26.22 48.618C26.838 47.9226 26.2234 48.4803 25.7489 48.8936C25.3658 49.3171 25.8905 48.8823 25.5553 49.2419L24.6055 50.1591L25.4142 49.342L25.0875 49.5103L25.1784 49.4353C26.6011 48.1061 25.1821 49.2072 26.6528 47.8591ZM26.5154 47.9442C26.4238 48.0246 26.3417 48.094 26.2742 48.1439C26.4064 48.0165 26.4652 47.9742 26.5154 47.9442ZM32.0517 42.2416L32.3096 42.0121L32.0517 42.2416ZM13.058 58.9823C13.0566 59.0287 12.296 59.8708 12.2507 59.7975L12.9557 59.0663L13.058 58.9823ZM30.1497 26.9187C30.2413 27.0053 30.3324 27.0936 30.4218 27.1834L30.4651 27.2443C30.401 27.1988 30.234 27.0125 30.1497 26.9187ZM27.6912 47.1793C27.5341 47.316 27.4587 47.3715 27.4134 47.3972C27.5141 47.3074 27.6105 47.228 27.6912 47.1793ZM29.9566 27.0088C29.8248 26.9128 29.6299 26.7722 29.5832 26.771C29.3481 26.5408 29.2149 26.3477 28.9874 26.1017C29.248 26.3754 29.5656 26.6763 29.9566 27.0088ZM28.969 26.0815L28.9872 26.1017L28.969 26.0815Z" fill="#202020"/>
<path d="M13.278 58.1123L13.5084 57.9145L13.3788 58.0081L13.924 57.4464C14.0058 57.3762 14.0863 57.3046 14.1656 57.2317C14.127 57.2649 14.0923 57.2858 14.0683 57.2964L14.2416 57.1151C14.7533 56.7425 15.916 55.7084 16.2752 55.4331C16.7283 55.0476 17.2653 54.5583 17.5876 54.2379C17.2856 54.532 16.8704 54.9084 16.9565 54.7583C17.536 54.1288 17.7311 53.7391 18.8835 52.7996L18.2588 53.4001L19.7952 52.1771C20.2302 51.6489 19.0284 52.7874 18.7852 52.9285C19.9418 51.9401 20.6707 50.8935 21.2927 50.5184C21.2945 50.3829 21.2984 50.1558 22.0204 49.4721C21.5837 50.0464 22.5 49.1071 22.1614 49.5973C22.4482 49.3969 22.9344 48.8029 23.0271 48.8131L22.9316 48.85C24.0429 47.565 24.6148 47.3449 25.1936 46.895C26.6841 45.5104 27.3108 44.8187 28.5148 43.6785C28.5152 43.5884 28.7123 43.1517 29.1957 42.6944C29.4809 42.5402 30.5891 41.5265 30.78 41.4976C29.9582 42.3559 30.0126 42.1081 29.4819 42.5844C29.1399 43.0775 29.5266 42.7022 28.9948 43.3131C29.4319 42.8277 31.1619 41.3056 31.5973 40.7325L31.4047 40.8971C32.178 40.0576 32.1359 39.7141 33.6249 38.5089L34.3272 37.9259C34.2877 37.9486 34.2746 37.943 34.2508 37.9523C34.7809 37.4323 34.9503 37.2207 35.1435 37.0052C35.1944 36.9483 35.2464 36.8923 35.2997 36.8374C35.3717 36.7636 35.4453 36.6912 35.5204 36.6202C35.6934 36.4559 35.9241 36.248 36.2863 35.9334C36.1746 36.0304 36.2235 35.9663 36.1118 36.0636C36.2556 35.9067 36.4048 35.7546 36.5593 35.6075C36.2745 35.33 36.0189 35.0533 35.7686 34.7788L35.4008 34.3752L35.0926 34.0429C34.7151 33.8079 35.1002 34.1778 35.2437 34.4101C34.0344 33.2925 32.8726 31.9484 32.2196 31.1601L31.4175 30.4616C31.8421 30.9252 32.3243 31.5272 32.1457 31.4331C31.7398 31.0151 31.8526 31.0628 31.2465 30.5025C31.3049 30.6416 31.5138 30.9206 31.7386 31.242C30.4398 30.1268 31.6166 30.8303 30.6263 30.1283C30.24 29.7569 30.0786 29.4802 30.0883 29.3895L29.3221 28.7806C29.3105 28.642 28.4522 27.8058 27.8972 27.2507C27.8566 27.1567 28.4225 27.6219 28.6111 27.8533C28.6208 27.7626 28.0441 27.1587 27.6566 26.7863C27.3766 26.7832 25.1456 24.3231 25.4396 24.9218C23.7479 23.2016 21.3224 20.8328 20.2344 19.6703C19.8182 19.3423 19.0458 18.6006 19.4428 19.109C18.0443 17.7599 17.4654 16.9265 16.0402 15.6235C15.908 15.5294 16.6661 16.2304 16.5708 16.2273C15.7194 15.2982 14.8621 14.6908 13.4919 13.2966C13.7263 13.5275 13.7666 13.6217 13.7851 13.6674C13.8327 13.669 13.2563 13.0648 12.9146 12.6919C12.6981 12.5059 13.1703 12.9709 13.038 12.8771C10.2527 10.3176 8.37004 8.13652 5.66041 5.53228C6.43419 6.27591 6.63446 6.64617 6.60496 6.69054L5.84703 5.96183C5.60141 5.63614 5.03331 5.08801 4.59285 4.59645C4.5174 4.55673 4.26777 4.35155 4.48168 4.60013C3.68823 3.92374 3.14683 3.32 2.5687 2.67015L2.12381 2.17221L2.06703 2.10866L2.03311 2.0577C2.00983 2.02457 1.98294 1.99376 1.97151 1.95385C1.93458 1.88235 1.91572 1.80195 1.9087 1.72115C1.90268 1.63977 1.91091 1.55549 1.93719 1.47547C1.95305 1.43808 1.96248 1.38828 1.98214 1.36891C1.99001 1.35547 1.99665 1.3414 2.00201 1.32686L2.00622 1.31504L2.02328 1.29547L2.0574 1.25614L2.12622 1.17651L2.13485 1.16643L2.13605 1.16527C2.0883 1.21642 2.12341 1.17903 2.11298 1.19026L2.11478 1.1891L2.1184 1.18658L2.13244 1.17651L2.16034 1.15578L2.21431 1.11121C2.23605 1.10153 2.2574 1.09106 2.27833 1.07983C2.32368 1.0496 2.35639 1.04921 2.3895 1.03216C2.39733 1.02189 2.44087 1.01783 2.48121 1.01376L2.6008 1L2.46556 1.00155C2.44709 1.00252 2.41338 1.00039 2.40134 1.00426C2.3718 1.01219 2.34146 1.017 2.31084 1.0186L2.24442 1.04418C2.19345 1.05638 2.1483 1.08719 2.09773 1.11916L2.07806 1.13078L2.06783 1.1366L2.06301 1.1395L2.06161 1.14028L2.06101 1.14066C2.06924 1.13175 2.04134 1.1612 2.07946 1.12052L2.07666 1.12342L2.03071 1.16915C1.99955 1.20042 1.96838 1.23167 1.93719 1.26292C1.88181 1.33868 1.80314 1.47799 1.78528 1.62602C1.77317 1.77563 1.80174 1.9257 1.86816 2.06138C1.91051 2.12493 1.94221 2.18093 1.99799 2.24487L2.15191 2.42041L2.46936 2.78273L1.85652 2.3152L2.74709 3.33764C2.11699 2.81683 1.71786 2.24738 1.59505 2.17434C1.6083 2.22181 1.64663 2.27412 1.69057 2.3305L1.7582 2.41692L1.82402 2.48803C1.9091 2.58084 1.97773 2.66221 1.96348 2.68488C1.81618 2.55255 1.71083 2.46826 1.6115 2.33922C1.56054 2.284 1.53144 2.22394 1.50495 2.16814C1.47806 2.11253 1.45157 2.06235 1.44274 2.00771L1.40883 1.85155L1.40482 1.68724C1.3994 1.63009 1.41485 1.57002 1.42408 1.50376C1.4299 1.43691 1.45338 1.36736 1.48167 1.28985C1.38374 1.48477 1.34703 1.74828 1.42689 2.01546C1.46622 2.14741 1.52923 2.284 1.62756 2.40103C1.65004 2.4299 1.67592 2.46536 1.69759 2.48919L1.762 2.55952L1.89405 2.70212C2.27423 3.10873 2.66015 3.51029 3.05171 3.90669L5.25064 6.12052C5.42342 6.30865 5.12743 5.93568 5.10937 5.89034C5.58134 6.35515 5.91145 6.58882 6.48697 7.19178C6.79981 7.60932 6.15867 6.95967 5.85666 6.68027C5.84542 6.76979 5.99733 6.91045 6.31901 7.23596C6.45967 7.23809 8.15152 8.95785 8.66042 9.28606C10.3984 11.0062 8.19967 9.18744 9.9477 10.8171L10.5401 11.236C11.476 12.258 12.7115 13.556 13.8569 14.6294L13.6218 14.3973C13.4971 14.2117 13.7799 14.4442 13.9131 14.5393C14.7999 15.33 15.4699 16.1628 16.0661 16.5851C16.9545 17.6056 18.5137 19.2316 19.5824 20.3475C19.987 20.5362 18.2203 18.861 17.8228 18.3512L18.8347 19.3291C18.2103 18.7236 18.0028 18.4465 17.6871 18.0269C18.5939 18.8649 18.7942 19.2347 19.6087 20.0725C19.5716 19.9818 19.7014 20.0735 20.0901 20.4472L20.1309 20.6206C20.1435 20.622 20.1919 20.6584 20.3161 20.7698L21.7701 22.2557C21.423 21.9777 21.3473 22.0213 20.9598 21.6487C21.1384 21.7429 20.8186 21.4185 20.4305 21.0461C20.724 21.4172 20.0149 20.7189 19.9856 20.7629C20.7632 21.51 21.7067 22.439 22.1964 22.9484L22.4255 23.0462C23.181 23.7443 23.9259 24.5323 24.4457 24.9985L24.3216 24.8131C25.2281 25.6505 26.06 26.5334 26.9099 27.2335C27.6279 28.0678 28.5628 29.0881 29.1331 29.786C29.3964 30.1996 31.5578 31.9271 32.3334 32.9004C32.4024 32.9498 31.7829 32.249 31.5098 31.925C32.1158 32.4855 32.4849 33.0399 32.7576 33.1358C31.397 31.8785 32.8984 33.1379 32.3233 32.5349C32.945 33.1383 33.5865 33.7879 33.8613 34.1133C32.8533 33.1385 34.0997 34.575 33.1162 33.5523C33.4581 33.9495 33.8751 34.4002 34.323 34.8584L34.7574 35.2998C34.8649 35.405 34.9753 35.5073 35.0888 35.6065L35.0308 35.6695C35.1058 35.6695 35.0835 35.7243 34.9214 35.9109C34.9176 35.9148 34.7007 36.0192 34.7045 36.0155C34.6043 36.1217 34.7235 36.0376 34.8291 35.9692C34.9326 35.9026 35.0223 35.8516 34.789 36.0954C34.7041 36.155 34.6639 36.1787 34.4932 36.3333C34.3412 36.4699 34.1914 36.6088 34.0439 36.7499L33.1005 37.6679C32.4801 38.2733 31.9138 38.8075 31.6278 38.9176C30.9991 39.6558 33.0221 37.7041 32.0552 38.798C32.7281 38.2685 33.4995 37.3863 33.7866 37.2747C33.1635 37.8291 33.6407 37.5557 33.2554 37.9294L32.5348 38.5229L32.6793 38.3772C31.4779 39.3806 29.7417 41.1322 28.2973 42.5003C26.999 43.5868 26.0398 44.2719 24.5958 45.6846C25.0756 45.319 23.4373 46.8973 24.4453 46.1035C23.8174 46.796 23.1004 47.3861 23.0496 47.3627C23.6287 46.7787 23.2459 47.1502 23.7259 46.651C23.344 46.932 22.5702 47.683 22.2814 48.0193C22.4257 47.8734 22.3782 47.936 22.4251 47.9184C21.7491 48.63 22.0414 48.2018 21.5117 48.6765C21.4133 48.8943 20.4014 49.7815 19.9679 50.2634L19.2012 50.8288C19.6322 50.5275 18.5749 51.4755 18.5231 51.6315C17.9963 52.0591 17.5157 52.3803 16.7935 53.1089C17.1297 52.8444 16.1646 53.8027 16.2124 53.8734C15.0058 55.1502 13.9535 55.736 12.8424 56.9762C12.8937 56.9539 13.1753 56.7588 12.8404 57.1114C12.5478 57.3614 12.0722 57.8343 11.7706 58.1129L11.7816 58.1056L11.7646 58.1187C11.6169 58.2549 11.5183 58.3355 11.5003 58.3247C10.936 58.755 10.6153 58.948 9.57145 59.859C9.57526 59.7217 10.441 58.9375 10.8264 58.6084L11.2087 58.3712C11.4044 57.9806 12.1232 57.5233 12.3164 57.2689C11.5978 57.7262 9.91118 59.4128 8.8061 60.3345C9.33747 59.6352 10.6884 58.3016 11.892 57.1622L11.4086 57.709L12.0335 57.1081L11.5035 57.762C12.0812 57.179 12.6108 56.7043 13.1406 56.1847C12.5141 56.7869 12.366 57.1143 12.7045 56.7582C13.3332 56.02 13.4749 56.1002 14.003 55.5821C13.7131 55.8743 13.3288 56.2479 13.6167 56.0462C14.5834 54.9522 14.9213 54.7306 15.7872 53.723C15.7842 53.9488 16.9916 52.5822 17.2292 52.5355L16.7959 52.9726L17.8053 52.1325C18.5785 51.2044 16.9416 52.7814 18.1946 51.443C19.4006 50.256 19.4903 50.4037 20.4566 49.488C20.0729 49.7263 19.2549 50.4029 18.4846 51.1504L18.9192 50.667C18.6321 50.8677 17.5719 51.9074 17.043 52.4261C18.0024 51.651 16.6547 52.8475 16.3153 53.2939C16.1755 53.3011 16.7516 52.7649 16.0304 53.3586C16.6575 52.7556 16.7544 52.6725 17.5256 51.8799C15.8349 53.5706 15.7487 53.1521 14.3022 54.656C15.0246 54.0164 14.1563 54.9813 14.1052 55.0927C13.7715 55.3996 13.095 56.0225 12.8064 56.2688L12.9569 55.9388C12.0407 56.7439 11.9392 57.2329 10.8307 58.1129C10.6422 58.1842 11.6996 57.2366 11.5067 57.4011C10.0649 58.6773 9.72136 59.3066 8.5663 60.5608C8.46838 60.5999 8.42202 60.5277 7.94242 60.8933C8.13446 60.8185 7.8463 61.1535 8.37125 60.7278C7.98516 61.1473 7.4572 61.5757 7.07292 61.9035C7.89325 61.0465 6.64108 62.1612 6.44944 62.28C6.0168 62.7165 6.64148 62.205 6.93024 61.9583C6.59051 62.3162 6.25299 62.8051 5.96543 62.9169C6.01178 62.9887 7.11687 62.112 7.79111 61.4914L7.35707 61.9293C7.69359 61.664 7.74215 61.6003 8.17319 61.1659C7.78871 61.6274 7.88302 61.6363 8.0265 61.5809C8.07426 61.5179 7.98075 61.5974 8.0261 61.5369C8.36543 61.1795 8.65419 60.9328 8.60403 61.0431C9.00416 60.8135 8.16275 61.5672 7.96289 61.8382L7.40543 62.3453L5.30182 63.8732C4.48409 64.604 4.19252 65.0063 3.64027 65.6153L3.4083 65.7048C2.73044 66.3732 2.10596 67.0186 2.63332 66.6799C2.63472 66.6336 2.73064 66.5517 2.87612 66.4048C2.90542 66.3947 2.94636 66.3684 2.99512 66.3318C3.01358 66.3219 3.02542 66.3182 3.04127 66.3108L1.76743 67.4639C3.11432 66.3587 1.95605 67.5259 2.28816 67.4439C1.99231 67.7119 1.69646 67.9798 1.4006 68.2478L1.29084 68.3472L1.14776 68.5032L1.10843 68.5467C1.10442 68.55 1.09217 68.5669 1.08054 68.5836L1.04843 68.6304C1.00749 68.6915 0.973976 68.7473 0.947891 68.7934C0.895115 68.8866 0.871239 68.9406 0.874046 68.9377C0.933113 68.7978 1.00589 68.6636 1.09137 68.5371C1.09794 68.5279 1.10456 68.5188 1.11124 68.5097L1.14595 68.4617C1.16269 68.4375 1.17936 68.4132 1.19592 68.3888L1.20034 68.3819L1.20094 68.3811L1.25873 68.3193L1.25993 68.3175L1.26234 68.3144L1.27097 68.3034L1.28341 68.2856C1.29605 68.266 1.29284 68.2619 1.278 68.2697C1.27057 68.2736 1.26033 68.2803 1.24749 68.2894L1.23746 68.2968L1.23666 68.2974L1.17665 68.3613L1.17545 68.3625L1.17284 68.3648L1.16782 68.3695L1.14576 68.3906C1.11365 68.4224 1.07713 68.458 1.03217 68.5068C0.948296 68.6186 0.862206 68.7556 0.794983 68.8938C0.750031 69.0108 0.707291 69.1321 0.679398 69.2456C0.659531 69.3609 0.646889 69.469 0.638863 69.5574C0.655491 69.6131 0.667896 69.6699 0.675987 69.7273C0.692242 69.8135 0.702274 69.9276 0.748428 70.0569C0.768696 70.1218 0.791973 70.1915 0.818462 70.2644C0.851772 70.3345 0.890499 70.4078 0.93264 70.4833C0.974388 70.5623 1.02543 70.6363 1.08475 70.704C1.11445 70.7396 1.14495 70.7755 1.17565 70.8121L1.22341 70.866L1.22943 70.8726L1.30006 70.9342L1.3075 70.9404L1.32235 70.9528L1.44435 71.0545C1.52822 71.1142 1.65405 71.1884 1.76562 71.2436L1.85271 71.2851L1.92635 71.3102L2.07566 71.3566C2.17499 71.3893 2.27652 71.4044 2.37806 71.4141C2.58014 71.4436 2.7788 71.4207 2.9594 71.3936C3.138 71.3498 3.30295 71.304 3.43238 71.2293L3.34509 71.2498C3.46489 71.1855 3.60135 71.1219 3.71894 71.0187C3.77914 70.9706 3.84415 70.9162 3.90054 70.865L3.99566 70.7691L4.41626 70.3578C4.70238 70.0834 4.99312 69.8135 5.28837 69.5483C5.28837 69.5932 6.05553 69.0718 6.438 68.8347C5.58957 69.7038 6.13639 69.2299 6.10931 69.3392C6.196 69.2481 6.35774 69.0902 6.38563 69.0805C6.53051 68.9788 6.24215 69.27 6.24035 69.3159C5.75954 69.749 5.27774 70.194 4.85653 70.5651C4.66779 70.7327 4.47496 70.896 4.2782 71.0549L4.12569 71.1742C4.036 71.2432 3.94709 71.3048 3.86221 71.3583C3.68863 71.46 3.51626 71.5216 3.37639 71.5633C3.57185 71.461 3.75666 71.3703 3.90676 71.2477C3.98121 71.1919 4.0677 71.1237 4.12569 71.0754L4.22823 70.9927C4.36629 70.8832 4.51037 70.771 4.65546 70.6029C4.51545 70.7055 4.37975 70.8135 4.2487 70.9266C4.21378 70.957 4.17826 70.9877 4.14235 71.0192L4.07773 71.0758L3.95472 71.175C3.79177 71.3118 3.59351 71.4143 3.38301 71.5057C2.92455 71.68 2.41882 71.7009 1.94662 71.565C1.88422 71.547 1.82181 71.5276 1.7596 71.5063C1.60328 71.439 1.45358 71.3582 1.31231 71.2649C1.29023 71.2506 1.28381 71.2453 1.27919 71.2417L1.26054 71.2271L1.22301 71.1981L1.14736 71.139L1.13793 71.1314L1.13311 71.1275L1.04421 71.0498L1.0398 71.0452L1.00468 71.0074L0.935249 70.9301C0.843544 70.8247 0.754047 70.7164 0.688229 70.5879L0.620804 70.4901C0.57016 70.4183 0.527317 70.3417 0.492973 70.2615C0.453239 70.1745 0.417122 70.0844 0.391838 70.0162C0.368359 69.9478 0.35973 69.9003 0.35973 69.9003L0.349899 69.7994C0.346489 69.7348 0.334049 69.6428 0.341473 69.5331C0.350601 69.408 0.366875 69.2835 0.390232 69.1602C0.428963 69.0242 0.466892 68.8926 0.533512 68.7432C0.596035 68.6177 0.668282 68.4969 0.749634 68.3819L0.789364 68.3272C0.805019 68.3059 0.802807 68.3111 0.810432 68.3018L0.927425 68.1747L1.01451 68.0819L1.02134 68.0759L1.03458 68.0639L1.05906 68.0422C1.07238 68.0304 1.08562 68.0185 1.0988 68.0066C1.12087 67.9868 1.13372 67.9758 1.13372 67.9758C1.08916 68.0112 1.05264 68.0381 1.02073 68.0602L1.0089 68.0682L1.00327 68.0721L1.00288 68.0722L0.921005 68.1596L0.920197 68.1602L0.918999 68.1614L0.916187 68.1635L0.896118 68.1792L0.859196 68.2067L0.791367 68.253L0.756657 68.277C0.741207 68.2904 0.705082 68.3354 0.678394 68.3689C0.619999 68.4431 0.554985 68.5345 0.485954 68.6554L0.434784 68.751L0.399063 68.8374C0.374981 68.8984 0.350296 68.9668 0.326015 69.0433C0.243942 69.3442 0.156052 69.8143 0.400463 70.4287C0.359528 70.3581 0.262608 70.1671 0.22448 69.8854C0.207222 69.7438 0.188759 69.5818 0.211834 69.4051C0.220192 69.3134 0.232986 69.2221 0.250164 69.1315C0.274445 69.0389 0.303345 68.9436 0.336857 68.8476C0.376389 68.6868 0.590096 68.3371 0.699661 68.209L0.794582 68.1034L0.908958 67.98L0.935452 67.9558L0.98843 67.907C1.12529 67.7815 1.25838 67.6523 1.38756 67.5195L1.72026 67.3476C1.57879 67.4009 2.63893 66.3612 1.821 67.0374C1.50668 67.3116 1.1923 67.5858 0.877857 67.8599L0.850567 67.8835L0.837322 67.8952L0.830704 67.9008L0.829098 67.9023L0.72916 68.0089L0.726154 68.012L0.63726 68.1067L0.597927 68.1488C0.59692 68.1476 0.568829 68.1858 0.555786 68.2034L0.508827 68.2691C0.449028 68.3551 0.40107 68.434 0.363747 68.4995C0.288895 68.6326 0.25679 68.7089 0.260201 68.7035C0.255989 68.7095 0.287487 68.6217 0.351101 68.4904C0.38731 68.4158 0.426746 68.3428 0.469299 68.2714L0.578465 68.0978L0.664345 67.9572L0.769299 67.8446L0.770699 67.8428L0.773113 67.8395L0.777927 67.8332L0.786758 67.8215C0.792175 67.8144 0.797188 67.808 0.801003 67.8025C0.808826 67.7921 0.813648 67.7863 0.813648 67.7863L0.767895 67.8289L0.762474 67.8341L0.652103 67.9517L0.640671 67.9645L0.615383 67.9936C0.597122 68.0143 0.576855 68.0379 0.554379 68.0633L0.537323 68.0831L0.528694 68.0932C0.526485 68.0953 0.523273 68.099 0.512035 68.1143C0.392616 68.2749 0.289597 68.4464 0.204414 68.6262C0.157455 68.7366 0.127357 68.8341 0.0936432 68.9449L0.049099 69.109C0.0394669 69.1646 0.0316391 69.2208 0.0246124 69.2774C-0.049633 69.731 0.0563202 70.1892 0.179733 70.5099C0.250771 70.6672 0.322609 70.7947 0.373978 70.8817C0.423744 70.9704 0.462475 71.0134 0.462475 71.0134L0.441605 70.9824C0.427959 70.963 0.410702 70.9338 0.392239 70.8972C0.354313 70.8247 0.306156 70.7263 0.263615 70.6269C0.223274 70.5369 0.191761 70.4435 0.169495 70.3479L0.138794 70.2183C0.162876 70.3054 0.189564 70.3897 0.218056 70.4705C0.24836 70.5504 0.288494 70.6248 0.325619 70.6978C0.363747 70.7705 0.403278 70.8398 0.443413 70.9059C0.485153 70.9706 0.53331 71.0283 0.578861 71.0857C0.625015 71.1425 0.67157 71.1963 0.717922 71.2475L0.75264 71.2853L0.769897 71.3037L0.774315 71.3081L0.776524 71.3104L0.891907 71.4114L0.895924 71.4147L0.92662 71.4395C0.967358 71.4716 1.00568 71.5019 1.0414 71.5306C1.24468 71.6763 1.55352 71.8357 1.71064 71.877C1.88261 71.9276 2.03291 71.9702 2.16616 71.982C2.43425 72.0103 2.62228 72.0031 2.76897 71.9752C2.91565 71.9496 3.02181 71.9301 3.12334 71.889C3.22549 71.8514 3.32663 71.8115 3.46027 71.7561C3.5877 71.6898 3.75846 71.6115 3.96495 71.4637C4.01971 71.4224 4.07358 71.3799 4.1265 71.3364L4.21379 71.2628L4.25874 71.2234L4.2798 71.2033L4.45699 71.0365C4.63165 70.8768 4.80872 70.7196 4.98817 70.5649C5.61024 70.1448 6.18837 69.606 7.20055 68.5847C6.43078 69.2875 7.05767 68.5952 6.72155 68.8149C7.44636 68.0397 7.78128 67.8653 8.21413 67.5179C8.35941 67.2823 8.45734 67.1099 7.78229 67.7754C7.59346 67.758 8.69774 66.926 8.65339 66.763C10.9169 64.5837 10.8088 65.3465 13.3179 62.6667L13.1759 62.721C14.9072 61.1525 15.8239 60.1683 17.4114 58.7008L18.5255 57.4141C18.2351 57.6619 17.4178 58.2933 17.7084 57.9108C17.224 58.5923 16.5537 59.1646 15.972 59.8408C15.8779 59.8765 16.1183 59.6042 16.2142 59.4773C15.8281 59.8519 15.6836 60.0871 15.1535 60.5622C15.1555 60.5164 15.6852 59.9516 15.2518 60.3444L14.6247 61.0812C13.6621 61.9481 14.0036 61.3662 12.9425 62.4513C13.2062 62.3137 13.7089 61.9979 14.1465 61.6036C13.6605 62.0984 14.8487 60.9964 14.4295 61.4713C13.6204 62.0789 13.3444 62.4828 12.3319 63.3518C12.4567 63.2555 12.5038 63.2437 12.7448 63.0219L11.3953 64.3983C11.6859 64.016 10.1913 65.4492 10.2423 65.2491C11.6885 63.7901 11.3012 64.2553 12.9419 62.5855C12.4472 63.029 11.7525 63.5462 11.3911 63.7537C11.3795 63.7707 11.3576 63.7967 11.3072 63.848C10.9723 64.0218 11.2141 63.7484 11.0739 63.6227C11.9394 62.9728 12.3742 62.3999 13.3368 61.5774C13.5814 61.4842 12.905 62.1769 12.4348 62.5937L13.2832 61.8694L13.0918 61.9884L15.0955 60.0059C14.7072 60.3732 14.5336 60.4577 14.3008 60.6203C14.5597 60.3647 14.7993 60.0954 15.0535 59.8087C15.0662 59.9328 15.1527 59.9456 15.4067 59.698C16.695 58.4216 17.3572 57.6595 17.7582 57.1166L17.9151 56.9748C17.7688 57.256 18.9722 56.2056 19.4506 55.8865C19.3557 55.8338 20.0783 55.1938 20.4162 54.7935C20.7026 54.6833 20.5541 55.0557 20.1662 55.5656C19.205 56.342 19.5925 55.9665 19.0639 56.2616L17.5739 57.5569L17.9588 57.3176C17.2826 58.029 16.5134 58.5971 16.6543 58.633C17.0871 58.3299 17.6674 57.6998 18.0975 57.3997L17.6628 57.8826C18.5751 57.1709 18.0012 57.3929 19.0607 56.4879C18.7691 56.9157 19.1566 56.4058 19.635 56.0419C19.3446 56.4246 17.8555 57.7184 18.2845 57.5532C18.8598 57.1062 19.8802 55.7206 20.6954 55.1812L20.6472 55.1996C21.6439 54.2049 22.0735 53.9321 22.4994 53.6107C22.8887 53.154 23.5428 52.6359 24.015 52.1889L23.9661 52.1637L24.6411 51.5422C24.259 51.7795 23.8701 52.2901 23.2938 52.8275L23.2946 52.6923C22.7243 53.4026 22.163 53.7017 21.5968 54.1328C22.3942 53.4795 23.661 52.1069 23.9701 52.0711L24.3558 51.5631L24.5994 51.3769C24.8863 50.9979 24.4567 51.2529 23.7822 51.8737C23.6855 52.0012 23.6368 52.0647 23.6861 52.0453C23.3492 52.3106 23.0143 52.5295 22.2907 53.2594L22.7221 52.9137C21.8061 53.8079 20.9416 54.5907 20.5579 54.8292C21.8586 53.5171 23.1604 52.2486 24.4121 51.046C24.9377 50.8421 25.4631 50.5056 25.797 50.4655C26.6619 49.6827 27.8195 48.6037 28.4936 47.8494L28.3978 47.886C28.7031 47.566 29.0251 47.2613 29.3627 46.9731C29.6994 46.5737 29.0285 47.1465 29.2691 46.8739L30.5183 45.7625C30.378 45.77 29.3681 46.7448 28.8837 47.2034C28.9798 47.1213 29.1734 46.9556 29.1237 47.0209C28.5931 47.5857 27.4412 48.4803 27.2932 48.8083C27.0046 49.0546 27.9158 48.3435 27.0008 49.2367C26.4206 49.8664 26.1343 49.977 26.0412 50.0115C25.9936 49.985 26.9568 49.0284 26.5723 49.3121C27.0566 48.8536 27.296 48.7159 27.8731 48.0889C27.3933 48.5434 26.6717 49.0933 26.4768 49.3938C25.4671 50.2337 25.4259 49.9336 25.8594 49.4963C25.809 49.6515 27.6415 47.9068 26.4812 49.166C27.1057 48.7 28.1175 47.7242 28.8859 47.0676L28.8387 47.0858L29.7554 46.2349C29.6091 46.3379 29.3205 46.5844 29.2744 46.5569L30.62 45.4517C29.8517 46.0632 31.0077 44.9871 31.2969 44.6502C31.4875 44.5767 32.0159 44.1477 31.5821 44.63C31.099 45.1766 31.2455 44.8947 30.7641 45.3512L31.5301 44.7864L31.5792 44.7218L32.0601 44.401C32.9749 43.5074 31.4859 44.6228 32.7373 43.5545L32.6847 43.8C34.0348 42.4677 35.6741 40.6656 36.6853 39.7794C36.3618 39.9809 36.1523 40.0049 36.4633 39.5988C36.0648 40.0171 35.2256 40.8206 34.6196 41.3873C34.5227 41.5152 35.4841 40.783 36.1104 40.1363C35.9617 40.599 34.3806 41.6136 34.4719 41.8489C32.8794 43.4996 33.079 42.8823 31.7759 44.3305C31.6818 44.277 31.3411 44.6798 31.2014 44.6874C31.4942 44.1689 33.0789 42.8825 33.9455 41.9632C33.851 42.0438 33.6608 42.206 33.6116 42.2261C34.2397 41.5772 34.5251 41.3341 35.0069 40.9223L34.9585 40.9861C35.825 40.2905 35.3936 40.4581 35.8278 39.9755C36.0199 39.8114 36.6476 39.1636 36.598 39.3175L37.3726 38.4324L37.4153 38.5523C37.8971 38.0964 37.9465 37.9426 38.4297 37.5741L38.5244 37.6268L37.3657 38.7957C37.9906 38.2396 37.6047 38.7031 38.2802 38.0811C37.8708 38.3975 37.9908 38.2617 38.2136 38.0296C38.3249 37.9133 38.462 37.7734 38.5714 37.6539C38.6189 37.6027 38.6645 37.5498 38.708 37.4954C38.7227 37.4766 38.7365 37.4571 38.7494 37.4371C38.7626 37.421 38.7733 37.403 38.7809 37.3838C38.895 37.2846 39.0094 37.1854 39.1168 37.0816L39.3407 36.8531L39.4537 36.7375C39.4914 36.6987 39.5155 36.6541 39.5472 36.6125L39.4645 36.7198L39.3624 36.8181L39.4505 36.7006L39.5133 36.5875C39.5528 36.5154 39.5972 36.454 39.6195 36.386L39.7001 36.2004C39.7228 36.1397 39.7375 36.0777 39.7573 36.0163C39.8027 35.894 39.8147 35.76 39.833 35.6003C39.8304 35.5203 39.8256 35.4331 39.8167 35.3368C39.8027 35.2413 39.7724 35.1388 39.7447 35.0235L39.83 35.3124C39.8458 35.4089 39.8595 35.5036 39.8715 35.5974C39.8729 35.691 39.8687 35.7836 39.8647 35.8758C39.8567 35.9675 39.8342 36.056 39.8191 36.1463C39.7744 36.3226 39.7142 36.4987 39.6122 36.6613C39.5719 36.7473 39.5025 36.8243 39.4357 36.905L39.2266 37.1531L38.8381 37.516C38.7506 37.5935 38.6655 37.6655 38.568 37.7461L38.7937 37.5594C38.8226 37.5367 38.9139 37.4536 38.9886 37.3865L39.2384 37.1606C39.4136 36.9665 39.6231 36.7634 39.7509 36.5263C39.8715 36.2845 39.963 36.0239 39.9871 35.7712C40.0481 35.2624 39.8773 34.8456 39.8001 34.6672C39.6913 34.4033 39.4662 34.2047 39.2847 34.004C39.1068 33.817 38.8822 33.5785 38.8015 33.5202C38.5776 33.3258 38.3526 33.1402 38.1094 32.9137C38.5529 33.3708 38.416 33.3479 38.4046 33.4262C38.399 33.4653 38.4247 33.5297 38.57 33.6918L38.9855 34.1369L39.3536 34.5207C39.4134 34.5969 39.4611 34.6839 39.5207 34.7724C39.5627 34.8695 39.6142 34.9702 39.6502 35.083C39.6546 35.0113 39.5334 34.7242 39.4461 34.635C39.6219 34.7825 39.8294 35.2173 39.7772 35.7263C39.7601 35.9797 39.6594 36.2345 39.5358 36.4615C39.4027 36.6834 39.1985 36.8642 39.0383 37.0308L38.6731 37.3427C38.7225 37.2474 38.6043 37.3299 38.5876 37.3203C38.5774 37.3174 38.5657 37.3174 38.6087 37.2647C38.6544 37.2094 38.7449 37.1112 38.9053 36.9444L39.1242 36.6791C39.0592 36.7706 39.0847 36.7673 39.175 36.6909C39.1973 36.6716 39.2249 36.6483 39.2536 36.6197L39.3361 36.515C39.365 36.4753 39.4013 36.434 39.4306 36.384C39.4563 36.3319 39.484 36.2765 39.5133 36.2178C39.6159 35.9793 39.6943 35.6559 39.6357 35.319C39.5783 34.9824 39.4258 34.6531 39.1505 34.4149L39.1601 34.5403C39.1668 34.6004 39.1613 34.661 39.1589 34.6622C39.1658 34.6591 39.0801 34.573 38.953 34.4442L38.4955 33.9803L37.9995 33.5148L38.0853 33.6085C37.6417 33.3264 37.0563 32.5865 36.3379 31.9791C35.8936 31.4689 33.9943 29.6995 34.9202 30.3558C34.2419 29.8431 33.8049 29.2402 33.1609 28.5878L34.0314 29.3355C33.1433 28.3154 33.369 28.6384 32.7247 27.7577C32.6139 27.7128 32.414 27.571 32.5382 27.7562C31.2257 26.5009 29.3269 24.7317 28.6569 23.8988C27.731 23.0147 27.4479 23.009 26.2103 21.709C25.9549 21.4303 26.5322 21.8076 25.6432 21.0144C25.577 20.9673 26.3797 21.8938 25.4364 20.9649C24.8484 20.2225 23.7931 19.4748 22.989 18.5467C22.4903 18.1284 21.6943 17.3357 21.7908 17.5677C22.5453 18.2644 23.575 19.2874 23.6998 19.4742C23.641 19.3341 24.2665 19.9408 23.7558 19.3833C24.9257 20.4083 24.4356 20.1254 25.4735 21.056C25.5138 21.1504 24.8797 20.6358 24.6909 20.4038C24.5883 20.4937 26.6173 22.3549 25.6101 21.6092C24.5321 20.5846 24.4186 20.081 23.3887 19.2855C23.7008 19.7017 24.3323 20.2142 24.7015 20.7691L23.9006 20.0715L23.4184 19.4696L23.4371 19.5153C22.0023 18.3028 22.2935 18.2164 21.1388 17.0069C21.904 17.6148 21.1471 16.6874 21.7131 17.1538C20.9207 16.3647 20.3167 15.8065 20.2133 15.8958C21.6393 17.4266 20.1953 16.0781 21.4898 17.5165C21.2263 17.3297 21.678 17.9747 20.8376 17.1842C19.9727 16.2143 21.1988 17.3755 20.2988 16.4443C20.235 16.3995 20.169 16.3528 20.1871 16.3982C19.8092 15.9351 19.6685 15.9328 19.2058 15.3775L19.3091 15.5152C18.6102 14.9549 18.6768 14.7745 18.0612 14.3052C18.3541 14.4479 17.7509 13.8906 17.4549 13.5173C18.0407 14.0297 18.4469 14.2208 19.5425 15.2897C19.6182 15.4736 19.5058 15.4267 19.9304 15.8903L19.2216 15.1923C19.3667 15.3505 19.4695 15.4784 19.5995 15.6263L20.3171 16.2614C19.4861 15.38 19.9473 15.7069 19.6366 15.2915C18.8137 14.5453 18.9941 14.6406 18.4735 14.1743C18.4398 14.3043 16.7913 12.8279 15.8185 11.9932L16.2481 12.4014C16.8624 13.097 15.7188 12.0259 15.671 12.0244L15.2267 11.5142C15.3126 11.6082 15.4194 11.7494 15.2 11.5607C14.5573 10.9101 14.6791 10.8663 14.0377 10.2165C13.9418 10.2138 14.4272 10.8181 13.994 10.447C13.8128 10.3502 13.2561 10.0208 12.4242 9.13804C12.38 9.06112 12.1635 8.83287 11.9088 8.57228C11.9428 8.60986 11.9869 8.65578 12 8.67497L11.3692 8.16365C11.7842 8.7172 12.4059 9.0927 12.8233 9.64896L12.7902 9.76231C13.1765 10.1359 13.6689 10.6741 13.8714 10.9448C13.2692 10.3881 13.1648 10.2492 12.5215 9.59781C12.3816 9.55461 12.8103 10.0369 12.8721 10.1064L12.8169 9.97001C13.6651 10.6687 13.9198 11.1742 14.9121 12.1054C15.0628 12.2451 14.9781 12.1526 14.9594 12.1071C15.6786 12.9424 16.5555 13.5961 17.2294 14.4322L17.0179 14.1516L19.4135 16.8076L19.3924 16.8438C19.2612 16.751 19.6467 17.1213 19.8648 17.3088L19.8642 17.3075L21.1814 18.7598C20.9992 18.6259 20.8251 18.482 20.66 18.3287C20.5338 18.1404 19.5644 17.259 19.7715 17.3082C19.2897 16.9339 18.6565 16.1922 18.3078 15.9124C18.9397 16.4257 17.9763 15.4501 17.9175 15.3101C17.6725 15.1688 17.0592 14.474 17.0689 14.6116C16.9368 14.5174 17.3988 14.8449 17.6064 15.1221C18.1541 15.7702 16.4363 14.0974 17.1367 14.8871C16.2178 13.91 14.9251 12.701 13.9904 11.6805L14.5749 12.1926C14.1224 11.7744 13.0896 10.7485 12.9792 10.7038C13.3005 11.0289 13.6858 11.3993 14.0933 11.8184C14.039 11.9105 13.0826 10.8415 12.9895 10.8409L11.891 9.54124L12.4304 10.0541C12.1386 9.68461 10.9645 8.65695 10.1245 7.86604C10.4979 8.42444 11.3735 9.077 12.205 9.95955C12.8002 10.6092 11.7148 9.67686 12.2903 10.28C12.1107 10.1527 11.722 9.772 11.5547 9.56081L11.2996 9.3502C11.7417 9.95703 12.9626 11.0957 13.6814 11.9444C13.6212 11.8671 13.5706 11.7979 13.5594 11.7659C14.2105 12.3249 14.8338 12.9296 15.4087 13.5324C15.0622 13.2545 14.9566 13.1141 14.786 12.9284C14.7405 12.9288 15.2967 13.4851 15.4854 13.7164C14.9002 13.204 15.3264 13.669 14.958 13.3431C15.2992 13.7153 15.6 13.9931 16.0523 14.4112C16.3172 14.599 15.911 14.1811 16.0039 14.1818C16.4321 14.6488 16.751 14.7435 17.3648 15.4393C16.4578 14.6009 17.4985 15.7619 17.7732 16.087L17.6211 15.9465C17.8485 16.2705 18.0852 16.5032 18.3291 16.6433C17.9879 16.2711 17.6211 15.9465 17.7794 15.9932C18.017 16.2273 18.2538 16.4606 18.5093 16.7388L18.3018 16.4619L19.4829 17.6244C19.6232 17.8537 19.8702 18.2243 19.9637 18.4527C20.2938 18.6866 20.6554 19.1067 20.9101 19.3849L20.8041 19.2434C21.3716 19.7114 22.5074 20.8749 22.5632 21.0116C22.9772 21.3375 20.1798 18.1828 22.7966 20.7863C23.8059 21.7619 23.2886 21.5259 23.8178 22.128C23.8178 22.128 23.7991 22.0833 23.8653 22.1298C24.3172 22.5469 24.3096 22.6399 24.6507 23.0121C24.365 22.7763 23.9799 22.4065 23.8762 22.2679C23.952 22.4516 24.8016 23.1518 25.0952 23.5223C24.7439 23.0127 25.9832 24.3146 25.6872 23.9416C26.6229 24.7354 27.493 25.7102 27.8895 26.2188C28.5969 26.6877 28.9208 27.2428 29.94 28.128C29.7879 27.9875 29.5344 27.7109 29.3145 27.5214C28.8331 26.9207 30.3544 28.4543 29.5693 27.5721C29.7399 27.7581 29.5449 27.6206 29.3697 27.4301C29.0518 27.1079 28.7759 26.7818 28.8897 26.8301L29.7407 27.5318L29.4823 27.2495L30.7655 28.3223C30.784 28.3675 30.6542 28.276 30.5877 28.229C32.0141 29.5331 33.5538 31.1124 34.7819 32.2759C34.797 32.4818 35.5244 33.2253 36.3558 34.0507L36.9893 34.6779L37.3029 34.9896L37.4213 35.1093L37.4886 35.1808C37.5762 35.2733 37.6595 35.3618 37.6766 35.466C37.6983 35.567 37.6712 35.6617 37.6234 35.7235C37.6932 35.6596 37.7552 35.5929 37.8114 35.5563C37.869 35.5195 37.9266 35.5139 37.9672 35.5786C37.9728 35.4924 37.9756 35.3482 37.8851 35.2056C37.8411 35.1345 37.7781 35.0644 37.7107 34.9869C37.6758 34.9479 37.6415 34.9113 37.5995 34.8699C37.5399 34.811 37.4779 34.7524 37.4137 34.6943C37.3023 34.6484 36.6524 34.0904 37.0112 34.5072C35.6599 33.1588 37.2841 34.6027 36.9524 34.14L37.3292 34.5176L37.6649 34.8629C37.8074 35.0268 37.9625 35.1568 38.0304 35.3252C38.0614 35.4047 38.0745 35.4897 38.0689 35.5744C38.0633 35.6592 38.0391 35.7419 37.9979 35.8169C37.9222 35.9634 37.7805 36.0514 37.6674 36.1393L37.5197 36.2504L37.2877 36.4451L36.8276 36.8403L36.8268 36.8864L36.0568 37.5442C36.6365 36.9589 36.4948 36.8789 35.77 37.6547L35.8686 37.5702C35.4799 38.0366 34.5174 38.8585 33.844 39.523L33.3172 39.9061C32.6428 40.5718 32.7343 40.717 32.5852 41.0008C31.5249 42.0411 30.8085 42.5411 29.9903 43.2172C29.6998 43.5996 28.1115 45.1574 29.0237 44.4002C28.0132 45.286 27.9249 44.8251 26.4281 46.5732L26.9081 46.2079C25.3166 47.7241 22.9607 49.8032 22.2859 50.5583C23.0518 50.1717 20.4973 52.6446 20.3955 53.0891C20.4331 52.974 19.8252 53.5343 19.7169 53.5967C19.6077 53.7426 19.4115 53.9716 19.1444 54.1578C19.7249 53.5277 18.5249 54.3965 19.7757 53.3284C19.0563 53.7856 18.1918 54.4349 16.8913 55.7024L16.9858 55.7557L17.997 54.7354C17.9476 54.8894 18.4757 54.3717 18.7194 54.1857C16.8381 56.0832 19.1462 54.1117 17.1702 56.0006C16.9318 56.137 17.0749 56.0374 16.5447 56.5125C16.7875 56.2829 16.8824 56.2909 16.4961 56.6658L16.0645 56.9673C15.5026 57.7506 17.2822 55.9483 16.7841 56.5987C17.602 55.9223 18.9483 54.6831 18.7988 55.0119C17.5936 56.2424 17.5047 55.9161 16.2517 57.2096L16.1546 57.3823C15.671 57.7957 15.5315 57.8033 15.242 58.006C15.2426 58.0501 15.1442 58.1788 14.8579 58.4679C13.992 59.1183 13.462 59.5936 12.6467 60.1779C14.6159 58.4289 14.1897 58.5471 16.211 56.7311C15.8741 56.9963 14.4778 58.3007 14.2902 58.2823L14.3835 58.3371C13.7103 58.912 13.0376 59.487 12.2654 60.2799L12.794 59.8511C11.6859 60.8202 11.1521 61.6555 10.1945 62.3398C10.4821 62.0494 10.7233 61.8208 10.9163 61.6565C10.3394 62.1492 9.66497 62.8149 9.08684 63.3974L7.74115 64.4582C7.78891 64.4837 7.01674 65.2338 7.44958 64.9301C6.62643 65.835 6.10007 66.1277 5.57312 66.6007C4.75138 67.5478 6.38904 65.8813 6.58068 65.8958C5.37365 67.1279 4.02656 68.3685 3.2586 68.9798C3.49679 68.7207 3.60676 68.5894 3.57586 68.5843C3.56181 68.6434 3.05532 69.1206 2.77719 69.3905L2.53699 69.5287L2.52696 69.5399L2.52435 69.5426L2.55024 69.5674H2.55064L2.55204 69.5684L2.55626 69.5723C2.56014 69.5764 2.56363 69.5808 2.56669 69.5855C2.56709 69.5864 2.56488 69.5816 2.56649 69.5843C2.57071 69.5924 2.56489 69.5795 2.5679 69.5868C2.5709 69.5971 2.57594 69.6067 2.58274 69.6151C2.58495 69.617 2.59458 69.6298 2.59819 69.6289C2.60123 69.6289 2.60424 69.6294 2.60703 69.6306L2.61405 69.6333C2.61987 69.6304 2.61264 69.6444 2.63131 69.6277C2.62228 69.637 2.61987 69.6385 2.62007 69.6372L2.61706 69.6376L2.61245 69.6395C2.60883 69.6397 2.61084 69.6488 2.60542 69.6457C2.59518 69.6387 2.59559 69.6519 2.58555 69.6411C2.57432 69.6453 2.56168 69.6168 2.55746 69.6168C2.55726 69.611 2.55726 69.6077 2.55626 69.6073C2.55867 69.6073 2.54823 69.6077 2.56047 69.6091C2.58171 69.6124 2.60128 69.6223 2.61626 69.6372L2.62709 69.6494C2.6283 69.6517 2.63934 69.6645 2.62569 69.6527L2.52616 69.574L2.47599 69.5359L2.47559 69.5357L2.54863 69.5994L2.54884 69.5992L2.54903 69.5988L2.54923 69.5984L2.54943 69.5975V69.5965C2.54863 69.5957 2.54542 69.5971 2.5392 69.5994C2.539 69.5975 2.52395 69.6035 2.51231 69.6029C2.50428 69.6099 2.51291 69.6097 2.50469 69.619C2.50168 69.6261 2.51051 69.6267 2.50629 69.638L2.50589 69.6399L2.50568 69.6409L2.50549 69.6413C2.47499 69.6143 2.57412 69.7011 2.43666 69.5812L2.43726 69.5818L2.43987 69.5839L2.45993 69.601L2.49966 69.6351L2.58034 69.7031L2.58937 69.7106L2.58676 69.706L2.58054 69.6973C2.57615 69.6918 2.57095 69.687 2.56509 69.6831C2.55437 69.6761 2.54205 69.6716 2.52916 69.6701C2.54166 69.6761 2.55546 69.679 2.56937 69.6786C2.58329 69.6782 2.5969 69.6746 2.60903 69.668C2.61465 69.6661 2.62288 69.6665 2.62469 69.6573C2.62588 69.6561 2.62733 69.655 2.62895 69.6543C2.63057 69.6535 2.63233 69.6531 2.63412 69.6531C2.63271 69.6572 2.64495 69.6451 2.65699 69.6333L2.69051 69.6008L2.94415 69.3566C3.10349 69.2055 3.24134 69.079 3.3495 68.9926C3.12926 69.1924 2.91336 69.3965 2.70195 69.605L2.64817 69.6585C2.64054 69.6641 2.64054 69.6616 2.63733 69.6643C2.63231 69.6668 2.63191 69.6757 2.6281 69.68C2.62248 69.6808 2.61866 69.6839 2.61565 69.6897C2.61425 69.699 2.60682 69.6959 2.60281 69.6996C2.59779 69.7011 2.59499 69.712 2.58897 69.7126C2.57753 69.7102 2.56669 69.7312 2.55385 69.7271C2.54639 69.7292 2.53938 69.7326 2.53318 69.7372C2.52679 69.7353 2.51995 69.7352 2.51351 69.737C2.48181 69.7405 2.52435 69.7478 2.52435 69.7746L2.52555 69.7844C2.52595 69.7883 2.51151 69.7759 2.50508 69.7724L2.45512 69.7387L2.40475 69.7046L2.37927 69.6876L2.36662 69.6788L2.36021 69.6746L2.35859 69.6734C2.47739 69.7771 2.39151 69.7019 2.418 69.7253L2.41779 69.7252L2.41719 69.7244C2.41134 69.7175 2.4041 69.7118 2.39592 69.7077C2.38508 69.704 2.37566 69.6988 2.37284 69.6897C2.33512 69.6668 2.32649 69.6188 2.31826 69.5672C2.31144 69.544 2.32749 69.5041 2.32589 69.4932C2.32549 69.4973 2.32267 69.5008 2.31806 69.5027C2.31527 69.5039 2.31228 69.5046 2.30923 69.5047H2.30382C2.30141 69.5049 2.31184 69.4942 2.31545 69.4895L2.37806 69.4153L2.41017 69.3776L2.42642 69.3582L2.43044 69.3535L2.38147 69.406L2.38268 69.4049L2.38488 69.4026L2.39411 69.3938C2.61736 69.1802 2.8436 68.9695 3.07278 68.7618C3.07418 68.7155 2.6889 69.0001 3.07519 68.626C3.98964 67.7777 3.4095 68.4966 3.74361 68.2784C3.38342 68.5971 3.13037 68.8409 2.92509 69.061C2.82255 69.171 2.73184 69.2751 2.64536 69.3797L2.51833 69.5372L2.51813 69.5376L2.58094 69.4704L2.58054 69.4709L2.57973 69.4725L2.57793 69.4752L2.57452 69.4804L2.5677 69.4913L2.55425 69.5126L2.52736 69.556C2.51151 69.5831 2.48643 69.6186 2.4778 69.6399C2.46817 69.6486 2.52716 69.6021 2.57713 69.5638C2.58968 69.5539 2.60232 69.5442 2.61505 69.5345L2.63271 69.5209L2.63693 69.5176L2.63793 69.5169L2.63853 69.5165L2.63873 69.5163L2.63893 69.5161L2.5707 69.5889L2.57291 69.5876L2.58114 69.5826L2.61606 69.5607C2.62348 69.514 3.05573 69.0945 3.16368 68.9521L3.35572 68.922C3.21526 68.8856 3.84074 68.1509 4.41907 67.6568C3.93285 68.2509 4.07833 68.104 4.02997 68.3466C4.89245 67.6995 4.80034 67.4206 5.76094 66.6894C5.66803 66.7241 4.89666 67.4274 5.52275 66.7807C6.05512 66.2591 6.05312 66.3951 6.43499 66.069C5.9556 66.3885 6.00456 66.2349 5.4776 66.574C4.51519 67.485 5.09412 66.9462 4.13031 67.8142L4.85593 66.9925C4.03659 67.7603 4.18389 67.4774 4.08917 67.514C5.39252 66.1099 5.24081 66.6195 6.1085 65.7441C6.5871 65.3802 5.28817 66.5567 6.01057 65.9623C6.8293 65.1508 6.24817 65.8262 7.21158 64.9582L7.02155 65.0758C7.26215 64.7583 7.59787 64.539 7.9348 64.2284C8.31948 63.9003 7.78228 64.8732 9.27687 63.44C9.18316 63.4906 9.14323 63.5037 9.1346 63.4954L7.05867 64.2968C8.72507 62.6898 10.3711 61.0633 11.9965 59.4177C12.2863 58.9029 10.6488 60.5252 10.7008 60.3688L9.92865 61.1626C10.025 61.1692 11.6145 59.5655 10.9862 60.3486C9.54155 61.6718 8.96222 62.3459 7.52041 63.5324C7.81319 63.0139 9.30075 61.8553 10.0749 60.9254C9.71814 61.2852 9.39687 61.5697 9.08041 61.8415L11.6456 59.2658L11.8838 59.0927C11.2719 59.71 10.8497 60.1378 10.7983 60.1958C11.6169 59.3847 12.3838 58.7748 12.5283 58.8077L12.384 58.953L12.7117 58.6907C12.9014 58.4979 13.0902 58.3045 13.278 58.1123ZM5.8665 5.98683C5.90844 6.04379 5.93814 6.09184 5.95499 6.13214C5.93753 6.0901 5.97987 6.1149 5.8665 5.98683ZM6.1697 67.8136L4.53626 69.439L3.72937 70.2431L3.5293 70.4417C3.50161 70.4721 3.45044 70.5139 3.40288 70.5521C3.35371 70.5885 3.31037 70.6333 3.25478 70.6608C3.04368 70.792 2.79525 70.8505 2.54943 70.8565C2.77077 70.8359 2.98449 70.7813 3.15646 70.6683C3.24756 70.6207 3.32101 70.5536 3.39064 70.4866C3.4697 70.4176 3.5004 70.3665 3.55418 70.308L4.08014 69.6864C4.38897 69.3163 4.60409 69.0445 4.66509 68.9325C4.72609 68.8205 4.63258 68.8686 4.32395 69.1381C4.16964 69.2727 3.96154 69.4628 3.69225 69.7159L3.24114 70.1437C3.1992 70.1871 3.15766 70.2163 3.11552 70.2495L3.05171 70.2996L2.97666 70.3368L2.9004 70.376L2.81552 70.3998C2.78662 70.4074 2.75833 70.418 2.72843 70.4238L2.63612 70.432C2.63512 70.4442 2.37726 70.4089 2.38047 70.4002C2.50649 70.4139 2.6606 70.4211 2.81552 70.3638C2.89619 70.3461 2.96803 70.2965 3.04388 70.2545L3.14783 70.1702C3.18415 70.1408 3.22448 70.0968 3.26341 70.0602C3.59735 69.7343 3.93544 69.4125 4.2776 69.0947C4.78664 68.7072 5.29876 68.3236 5.81392 67.9438L6.56944 67.3918C6.7667 67.2503 6.89212 67.1643 6.89232 67.1738C6.74703 67.4094 6.40971 67.6311 6.07118 67.987L6.1697 67.8136ZM6.66055 66.7691C7.26757 66.1448 7.16423 66.3205 7.29647 66.2605L6.62443 66.8836C6.69888 66.7946 6.72757 66.7427 6.66055 66.7691ZM7.29406 66.3306C7.22442 66.3994 7.16603 66.4591 7.13934 66.4941L7.29406 66.3306ZM7.76102 63.172L7.69459 63.2321L8.13767 62.7884C8.08329 62.8519 7.97313 62.9666 7.76102 63.172ZM6.57506 64.4837L6.36175 64.5653L6.77734 64.1495C6.75908 64.2237 6.73479 64.2962 6.57506 64.4837ZM2.69753 68.6368C2.61385 68.6804 2.49686 68.7649 2.36623 68.8668L2.16234 69.0296L2.10997 69.0722L2.08368 69.0935L2.07063 69.1044L2.07024 69.1048C2.07907 69.0951 2.04957 69.1265 2.0901 69.0834L2.0895 69.0842L2.08789 69.0858L2.08488 69.0889L2.07887 69.0947L1.98375 69.1896C1.94422 69.2249 1.9382 69.2437 1.92435 69.2636C1.91131 69.2846 1.89345 69.3006 1.8792 69.3241C1.85933 69.378 1.82281 69.4254 1.81178 69.4729C1.79873 69.5196 1.78027 69.5603 1.76722 69.592C1.7588 69.6238 1.74696 69.6463 1.73191 69.6552C1.71947 69.6883 1.70281 69.6537 1.68916 69.5773L1.69258 69.4363C1.6994 69.3828 1.71967 69.3252 1.73331 69.2642C1.74715 69.2338 1.76421 69.2057 1.77926 69.1757C1.79572 69.146 1.80435 69.1154 1.83505 69.084L1.91372 68.9893L1.93358 68.9654C1.93864 68.9605 1.94365 68.9555 1.94863 68.9505L1.99358 68.9062C2.11378 68.788 2.23739 68.6659 2.36481 68.5402C2.38669 68.544 2.4501 68.5062 2.54703 68.4351C2.30402 68.6913 2.15632 68.8767 2.31425 68.8302C2.84823 68.0835 2.98509 68.347 3.66094 67.6349C3.9487 67.4786 2.93693 68.4545 2.69753 68.6368ZM23.1822 20.2651C23.1544 20.2533 23.0655 20.206 22.9436 20.1365L23.3974 20.6596C24.3046 21.4982 25.1442 22.061 25.8333 22.9393C26.235 23.2737 26.4939 23.4105 26.7333 23.5486C26.5467 23.3752 26.3707 23.2142 26.2206 23.0838C24.1412 20.7644 24.8819 22.1203 23.1822 20.2651ZM33.548 29.9702C33.4621 29.8764 33.4437 29.8307 33.4437 29.8307C35.2637 31.9045 36.8498 33.5275 37.9256 34.554C37.6533 34.4167 36.6435 33.5388 36.1611 33.1249L36.4908 33.5862L36.8011 33.7734L37.4348 34.5151C37.189 34.3739 36.6333 33.8174 36.2167 33.489C36.1979 33.4436 35.0727 32.1904 34.7797 31.8194L35.7989 32.7047C35.5168 32.4722 34.2498 31.2159 33.7595 30.7061C33.7868 30.6606 34.7213 31.4526 34.7512 31.6371C34.9106 31.6849 33.8996 30.7075 34.5983 31.2682C33.899 30.4794 32.6438 29.3622 32.0568 28.8482L31.8696 28.8461C31.2197 28.2879 31.5662 28.3378 30.7832 27.6851C31.6619 28.5684 30.5301 27.6367 31.2367 28.3322C30.9738 28.146 31.1342 28.4221 30.4262 27.7252C29.9536 27.0323 29.596 27.0719 29.1415 26.4243C28.7275 26.0984 29.4722 26.8861 28.7165 26.1878C27.9325 25.3068 28.0276 25.3095 28.0643 25.1727C28.8825 25.9144 28.8395 26.1449 29.5099 26.7504L28.3724 25.3573C28.6318 25.566 28.81 25.7338 28.9515 25.8822C28.701 25.6234 28.5034 25.3889 28.3461 25.1768L28.0934 24.8454C28.8255 25.5507 29.477 26.1758 29.6297 26.25L29.5722 26.1108C29.8708 26.3224 30.2617 26.7599 30.4246 26.9783C31.0746 27.6152 31.6683 28.3047 31.8674 28.3888L31.6583 28.1106C32.4516 28.8999 32.536 28.9918 33.548 29.9702ZM18.4156 56.0458C18.7448 55.4219 19.1426 54.7674 21.4467 52.5962L21.2566 52.7585C22.3043 51.5548 23.6249 50.7259 24.91 49.2716C24.1729 49.8679 24.2149 49.8379 23.3305 50.4281L24.1021 49.7697C23.8144 49.8809 24.5839 49.2243 25.1131 48.7054L24.54 49.0608C24.2494 49.3983 23.4305 50.2095 23.4315 50.1634C23.6245 49.9989 22.4657 51.3461 21.742 51.987C21.7442 51.8508 23.2368 50.4639 22.4693 50.9857C23.0933 50.475 23.0956 50.3391 23.7224 49.7807C23.097 50.2928 23.4847 49.8274 23.0038 50.1938L24.0156 49.2626C24.0182 49.2154 22.5251 50.6025 23.2493 49.7381C23.6815 49.3911 24.6929 48.3264 24.7868 48.3803L24.788 48.3346C25.5124 47.6039 25.2196 48.1222 26.0865 47.203C26.1349 47.229 25.9874 47.4216 25.6539 47.7287C25.3619 47.9785 25.2682 47.9695 24.6907 48.507C24.4948 48.8093 25.3673 47.8395 25.0727 48.3154C24.9265 48.5518 23.5328 49.7199 24.0588 49.4268L24.782 48.6975C24.8759 48.7515 25.4069 48.2305 25.4524 48.3034C25.932 47.8936 26.2742 47.4003 26.8011 47.0174C27.0411 46.8791 26.7967 47.2891 27.5211 46.5137C28.0071 45.8305 29.7873 44.1532 30.4619 43.5326L31.0862 43.022C31.0832 43.1139 29.9785 44.0794 30.4083 43.7798L31.3254 42.929L31.2273 42.9682C31.5188 42.6743 31.8544 42.4102 32.1427 42.1637C31.8086 42.3819 31.1825 43.0284 31.2331 42.8289C31.6397 42.4065 31.6752 42.3164 32.0783 41.956C31.988 42.0325 31.9075 42.0955 31.9071 42.0746C32.7277 41.217 32.8194 41.3622 33.059 41.18C34.0194 40.4488 32.2874 42.1067 32.4776 42.0785L35.0284 39.6986C34.7888 39.8809 34.5479 40.065 34.5967 39.9559C35.1758 39.3272 34.5502 39.884 35.4174 39.0538C35.4628 39.2161 36.5713 38.068 37.2431 37.5386C37.4843 37.2211 37.5343 37.156 36.9096 37.7566C36.9086 37.6239 37.7825 36.8316 38.0593 36.5522C38.0956 36.5237 38.1312 36.4944 38.166 36.4643C38.2477 36.3937 38.3556 36.3131 38.4478 36.2168C38.4939 36.1688 38.5431 36.1223 38.5728 36.0667C38.6067 36.0138 38.6436 35.9648 38.6599 35.914C38.629 36.0744 38.6157 36.1225 38.6884 36.0529C38.704 36.0345 38.7297 36.0105 38.749 35.9741C38.767 35.9372 38.7877 35.8913 38.8112 35.8361C38.8354 35.7811 38.8397 35.7121 38.8557 35.6354C38.8625 35.5481 38.859 35.4603 38.8453 35.3738L38.8525 35.3273C38.9127 35.5288 38.9219 35.7706 38.8375 36C38.7584 36.2343 38.5686 36.4162 38.3892 36.6092L37.8425 37.1672L37.3395 37.6684C37.0176 37.9823 36.7298 38.2462 36.5187 38.4039L36.7102 38.2855C35.7447 39.3332 34.3547 40.3196 34.0128 40.9024C34.1083 40.9103 33.8187 41.1128 33.9114 41.1676L33.0981 41.8401L33.2891 41.7214L31.9882 42.9449L32.0362 42.9256L30.3975 44.1828C30.3634 44.1528 30.3931 44.1047 30.1655 44.2778C29.9861 44.4237 29.8154 44.5794 29.6542 44.7439C29.653 44.7447 29.653 44.7447 29.6526 44.7445L29.653 44.7449C29.3476 45.0584 29.1845 45.3062 28.8156 45.6993L30.0176 44.5542C30.1704 44.5139 30.1264 44.6674 29.58 45.2698C29.8214 45.0408 29.9647 44.9857 29.6749 45.2779C29.6279 45.2953 28.8572 45.9993 29.0986 45.6805C27.9441 46.7563 26.2533 48.6698 24.4258 50.2308C25.7263 49.0972 23.5085 51.2601 24.9048 49.9557C24.0347 50.9671 23.9925 50.6679 23.0289 51.6249C22.9776 51.7361 23.5569 51.1072 23.8442 50.9508C22.2547 52.5539 20.9594 53.4597 19.4143 55.0036L19.4163 55.1353C19.1095 55.4141 18.7693 55.7239 18.4156 56.0458ZM15.2197 58.965L14.2745 59.8315L14.3628 59.7422L13.3982 60.566C13.9296 60.0007 14.2218 59.5721 13.4046 60.2927C13.499 60.2566 13.3055 60.5112 13.5939 60.2647C13.1117 60.8107 12.0024 61.9591 12.1976 61.5689C13.3031 60.6924 12.2992 61.2139 13.1634 60.5211C12.671 60.865 12.2811 61.3007 11.8498 61.6584C12.324 61.3104 11.8816 61.877 11.282 62.5084C10.9924 62.7556 10.2698 63.4842 9.78898 63.8953C9.8867 63.6775 9.45526 64.0234 10.1779 63.2945C9.76737 63.6444 9.38069 64.0196 9.02022 64.4177C9.21747 64.2483 9.55118 63.9414 9.55179 63.9856C9.30717 64.3351 8.94958 64.6755 8.77861 64.8889L8.30101 65.3302C8.34115 65.2804 8.37346 65.2353 8.39272 65.1991L7.817 65.6461C8.53881 65.0073 8.10717 65.3089 8.06102 65.2814C8.15433 65.3357 7.62536 65.7207 7.38637 65.9468L7.82162 65.374C7.53326 65.5757 7.00108 66.2765 7.05265 66.0756C8.11219 64.9919 8.54523 64.6 9.5554 63.67L9.21647 64.116C10.3731 63.0831 9.79761 63.3514 11.0498 62.1484C11.6249 61.701 12.9321 60.3384 13.0701 60.4221C12.8793 60.5401 13.748 59.5746 14.227 59.2103C14.8027 58.8527 16.2471 57.4848 15.8608 57.9482C15.4753 58.3228 14.8988 58.7705 14.6548 59.1352L15.426 58.4318L14.9899 58.9608C15.2243 58.6961 15.2542 58.7727 15.2197 58.965ZM3.84375 65.5374L3.87124 65.5081L3.83953 65.5395L3.84375 65.5374Z" fill="#202020"/>
<path d="M12.3511 9.7993C12.1603 9.56675 11.6209 9.05677 11.7811 9.10436C11.7071 9.15041 12.728 10.0319 12.3511 9.7993ZM11.6517 9.24153C11.6286 9.19143 11.6779 9.19433 11.4398 8.96158L12.0856 9.61145L11.6517 9.24153ZM10.566 8.99563C10.2701 8.62456 10.0798 8.39259 9.54037 7.88241C9.1913 7.83153 10.3753 8.76366 10.4796 9.12932C9.48498 8.20048 9.31295 7.78703 8.51872 7C8.9804 7.32483 10.649 8.85924 10.566 8.99563ZM10.8148 9.59384L10.3026 9.03781L10.365 9.08115L10.8776 9.63756L10.8148 9.59384ZM23.9171 19.7078C24.0128 19.7105 24.3071 20.0808 24.4781 20.2668C24.3268 20.1273 24.1073 19.9396 23.9171 19.7078ZM17.186 19.1711L13.0692 15.1311L17.186 19.1711ZM37.4243 33.2625C36.3505 32.1473 35.9339 31.5938 34.8156 30.4808C36.4061 31.8293 36.6476 32.5199 38 33.6355L37.4243 33.2625ZM37.3993 32.5294C37.127 32.4352 38.1595 33.4556 37.9333 33.3611C37.2015 32.6175 37.6656 32.9446 36.9747 32.2953L37.3993 32.5294ZM30.8952 29.0495L31.1887 29.4184L30.9325 29.1404L30.8952 29.0495ZM37.496 39.3202L37.6392 39.2204L37.1065 39.7851L37.496 39.3202ZM37.7827 39.1211L37.6392 39.2204L37.7827 39.1211ZM31.1436 29.6471L30.6213 29.1812L30.4124 28.9036L31.1436 29.6471ZM36.056 33.4674L35.6334 33.0079C35.7174 33.0988 36.3694 33.6564 36.056 33.4674ZM34.1112 42.6422L33.5297 43.1366L33.577 43.0747L34.1567 42.5819L34.1112 42.6422ZM37.7857 36.5008C37.8141 36.4301 37.7633 36.4607 37.6995 36.513L37.6012 36.5981L37.4686 36.7171C37.431 36.7492 37.4126 36.7614 37.4277 36.7374C37.443 36.715 37.4596 36.6934 37.4773 36.6728C37.4986 36.6451 37.553 36.5849 37.5635 36.5656L37.6574 36.4853C37.8368 36.3402 37.7913 36.4418 37.7857 36.5008ZM31.7638 43.1573C31.6899 43.2283 31.6097 43.3008 31.5271 43.3658L31.7638 43.1573ZM31.7638 43.1573C32.0025 42.928 32.2156 42.6742 32.3987 42.5355C32.1314 42.8506 32.0115 42.9437 31.7638 43.1573ZM29.0133 45.7691L29.225 45.5565C28.9708 45.7374 29.0805 45.6412 29.3045 45.4772C29.5362 45.2591 29.5444 45.2918 29.5863 45.2796L29.7533 45.1692L29.541 45.3264C29.1863 45.6683 28.9661 45.8736 29.0133 45.7691ZM19.983 56.6115C20.7573 55.8196 20.9521 55.6095 20.8566 55.6012C21.5989 54.8563 21.5707 55.0556 22.0491 54.636C21.1805 55.4509 21.029 55.6426 19.983 56.6115ZM22.0491 54.636L22.353 54.3522C22.2546 54.4496 22.1532 54.5442 22.0491 54.636ZM31.6413 42.153L31.0648 42.5536L31.2582 42.3892L31.6413 42.153ZM18.823 57.776C18.968 57.6303 19.2077 57.4043 19.3066 57.2751C19.4015 57.2842 18.6782 57.9211 18.823 57.776ZM20.8862 53.8354C20.9356 53.7269 21.4661 53.254 21.6621 53.0422C21.3701 53.3355 21.2226 53.6613 20.8862 53.8354ZM16.315 59.7726C16.4598 59.6269 16.6528 59.3744 16.5112 59.428C16.7519 59.2456 17.1352 59.0539 16.315 59.7726ZM19.4347 55.2477L19.531 55.121L20.1115 54.6277L19.4347 55.2477ZM20.6179 52.6359C21.2951 52.1046 19.7917 53.7172 20.904 52.7499C19.6019 54.125 20.9209 52.5647 19.9226 53.5431C20.4922 52.9555 20.7029 52.6022 20.6179 52.6359ZM19.9224 53.5429C19.84 53.6282 19.7488 53.7193 19.6483 53.8165L19.9224 53.5429ZM11.6564 62.2368C11.7304 62.1751 11.8064 62.1156 11.8842 62.0584C11.8087 62.1209 11.7351 62.1793 11.6564 62.2368ZM16.6512 56.5865L17.6664 55.7904C16.9886 56.3225 15.4426 57.8145 15.4465 57.6324C15.9293 57.1325 16.5577 56.5761 16.8458 56.3764L16.6512 56.5865ZM7.74886 68.3686L8.18395 68.0212L7.6973 68.5093C7.82581 68.3591 7.5001 68.5414 7.74886 68.3686ZM7.60303 68.6037L7.6973 68.5095C7.67836 68.5321 7.64875 68.5621 7.60303 68.6037ZM13.4455 60.6047C13.7367 60.3122 13.9776 60.0856 14.2659 59.8407C14.1708 59.9657 13.4449 60.6945 13.4455 60.6047ZM4.80821 70.9338L5.48178 70.3172L4.75745 71L4.80821 70.9338ZM1 68.0585L1.09608 67.9327L1.67458 67.4409L1.57669 67.5684L1 68.0585ZM4.08529 68.4245C4.52118 67.9867 4.95284 67.7323 4.85353 67.8613L3.98537 68.6878C4.13222 68.4069 4.22729 68.4596 4.71011 67.9606L4.08529 68.4245ZM23.9121 46.3133C23.6704 46.452 22.7531 47.3873 22.7497 47.4792C22.8967 47.3764 23.4287 46.9026 23.1362 47.2402L22.2684 47.8439C21.3481 48.8712 23.1819 47.2683 23.7157 46.837C22.7174 47.8253 22.3383 48.0385 21.2607 49.0745C21.4837 48.8466 21.6911 48.6049 21.8815 48.3511C21.834 48.2351 20.8665 49.2359 20.1416 49.9192C20.5623 49.445 20.2668 49.6694 19.9008 49.9575C19.8382 50.0126 19.7937 50.0463 19.7596 50.068L19.6348 50.1653L19.7212 50.0827C19.7055 50.0794 19.7131 50.0502 19.7596 49.9755C20.3867 49.4202 20.7773 48.9099 21.1642 48.5363C20.9177 49.036 22.5172 47.2977 23.0472 46.8696L23.6238 46.3416L23.8349 46.1394C23.8623 46.0843 23.7834 46.1237 23.4351 46.4064C23.7304 46.1748 24.6149 45.3067 24.5764 45.4284L26.6189 43.4703C26.673 43.41 26.7237 43.347 26.7708 43.2815C26.8501 43.2217 26.8689 43.2172 26.8666 43.2329C29.3668 40.8368 31.8669 38.4409 34.3614 36.045L34.332 36.0105C34.3495 36.0215 34.3703 36.0328 34.3936 36.045C34.3876 36.0776 34.3797 36.1223 34.3429 36.1786C34.4559 36.1575 34.4365 36.1839 34.389 36.2361L34.3721 36.2551C34.364 36.2638 34.3709 36.2583 34.3298 36.2992C34.2697 36.3597 34.2135 36.4174 34.1696 36.4659C34.0816 36.5631 34.0417 36.6232 34.1128 36.5961C34.1968 36.5304 34.2873 36.4537 34.3793 36.3713C34.4404 36.3158 34.4341 36.3237 34.4502 36.3094L34.4859 36.2759C34.5316 36.2299 34.5665 36.1817 34.5812 36.1475C34.6285 36.1434 34.6456 36.1666 34.6557 36.1984C34.6666 36.2291 34.6702 36.269 34.7141 36.2767C34.6763 36.3253 34.6347 36.3711 34.5898 36.4137C34.5785 36.4238 34.4267 36.5629 34.336 36.6391C34.1338 36.8117 33.9531 36.9471 33.7724 37.081C33.4113 37.3489 33.0503 37.6109 32.5179 38.1526C32.6134 38.1609 32.9977 37.879 32.2732 38.5614L32.4668 38.397C31.2596 39.4446 31.6892 39.3697 30.8233 39.9275L30.9174 39.9813C30.3395 40.4276 29.3251 41.4011 28.7434 41.94L28.7919 41.9212C27.1029 43.3782 27.8738 42.768 26.0378 44.4624L26.9539 43.7508C26.3691 44.3819 26.1338 44.4249 25.698 44.8625C25.7443 44.8457 25.6957 44.9977 26.1304 44.6065L23.8126 46.5763C23.2345 47.023 23.8629 46.4221 23.9121 46.3133ZM21.2607 49.0745C21.1312 49.2075 20.9981 49.3372 20.8615 49.4634L21.2607 49.0745Z" fill="#202020"/>
<path d="M33.9362 36L34 36.061C33.9734 36.0463 33.9514 36.0252 33.9362 36ZM17.4379 51.7477C17.782 51.3525 17.096 51.9649 17 52L18.3741 50.7169C18.3972 50.7501 18.5657 50.6536 18.5651 50.7045L17.4379 51.7477Z" fill="#202020"/>
<path d="M19.3335 50.3759C19.3982 50.3511 19.5564 50.2303 19.7308 50.0919L19.0025 50.8064C18.9858 50.781 19.0479 50.6818 19.3335 50.3759ZM20.705 52L20.9427 51.7713L21.3203 51.4433L20.705 52ZM24.2582 48.2635C24.0205 48.5818 23.455 49.0733 23.2658 49.2377C23.8813 48.6355 23.5988 48.8809 24.2582 48.2635ZM23.9598 49.4614L24.576 48.9037L24.5293 48.9664L23.9598 49.4614ZM30 31.289L29.7156 31C29.8125 31.0942 29.9074 31.1906 30 31.289Z" fill="#202020"/>
<path d="M35 35.86C34.7942 35.7188 34.7886 35.7481 34.809 35.7984C34.8325 35.8519 34.8931 35.9379 34.8871 35.9764C34.8299 36.0031 34.7877 36.0071 34.7534 35.9886C34.7596 35.9851 34.7655 35.981 34.7709 35.9764C34.756 35.9359 34.738 35.8966 34.7171 35.8588L34.6868 35.8854L34.6216 35.8118L34.2022 35.389C34.4457 35.5324 34.5946 35.6734 34.604 35.5807C33.3193 34.3534 34.1442 35.2478 33.1515 34.3969L31.7474 32.9936L31.8463 33.1216C31.7284 33.003 31.6822 32.945 31.6499 32.8963L26.9186 28.1666C26.0927 27.2717 27.4904 28.5479 26.9271 27.8427C27.9315 28.8337 29.4787 30.2517 29.4614 30.4372C29.4418 30.39 29.4038 30.2964 29.6195 30.4853L30.1158 31.1416L29.5349 30.6218C30.0348 31.2812 31.94 33.123 32.3334 33.4078C31.2894 32.3215 31.9292 32.7523 30.3796 31.3327C30.4727 31.3732 30.7921 31.5978 30.4701 31.2519C31.3306 32.1301 32.1649 32.9446 32.9999 33.7741C33.4221 34.1925 33.8409 34.6142 34.2563 35.0392L34.5727 35.366L34.7316 35.5314L34.8084 35.612L34.8319 35.6405C34.8939 35.7162 34.9513 35.7904 35 35.86ZM18.0186 19.0141L18.023 19.0369C17.9965 19.001 17.9901 18.9872 18.0186 19.0141ZM18.6192 19.5813L19.3717 20.5224L18.0491 19.2021L18.023 19.0371C18.1227 19.1709 18.5536 19.6662 18.762 19.8174L18.6192 19.5813ZM20.3018 21.5598C19.6447 20.8524 19.7651 20.8072 20.1778 21.1395C19.5854 20.4792 19.7555 20.8994 19.409 20.3842C19.4831 20.3392 20.2259 21.1409 20.3936 21.3281L20.3018 21.5598ZM25.416 26.5173L25.2573 26.2928L25.7424 26.7531L25.416 26.5173ZM25.2573 26.2928L24.7753 25.8359C24.8336 25.8428 24.891 25.8501 24.9855 25.9089L25.2573 26.2928ZM23.5112 24.6364C23.274 24.4163 23.0394 24.1935 22.8074 23.9681L23.5112 24.6364ZM24.0729 25.1484L24.046 25.1433L23.511 24.6364C23.7122 24.8194 23.8922 24.9838 24.0729 25.1484Z" fill="#202020"/>
<path d="M24.9008 25.7122C24.7666 25.6942 24.6164 25.6662 23.9533 24.9853L24.1759 25.0287L24.9008 25.7122ZM28.7314 44.9359L29.3016 44.4419L29.2538 44.5064L28.6839 45L28.7314 44.9359ZM31.7789 41.8482C31.8957 41.7499 32.0146 41.6542 32.1357 41.5611C31.9894 41.6919 31.8685 41.7913 31.7789 41.8482ZM34.479 39.9788C35.0527 39.3029 33.53 40.7572 34.6744 39.5858C34.7234 39.4318 34.1049 39.9004 33.5808 40.4665C33.6757 40.4736 34.1505 39.9726 33.8637 40.3554C33.4386 40.6561 33.3397 40.8318 33.3903 40.6317C32.7266 41.1874 32.6033 41.2012 32.1353 41.5613C32.9135 40.8656 34.3973 39.2579 35.4406 38.4296C36.0539 38.0103 35.8642 38.443 36 38.5719C35.9532 38.6794 34.6183 40.0157 34.479 39.9788ZM33.6179 41.0834C33.332 41.3761 33.2372 41.4586 33.0467 41.6232C33.0495 41.5312 33.3796 41.3128 33.6179 41.0834ZM34.5519 33.2458C34.515 33.1726 34.0096 32.6312 34.156 32.7104L34.9343 33.5195C34.743 33.3382 34.6534 33.2959 34.5519 33.2458ZM35.2761 33.8742L34.9345 33.5195C35.0241 33.6039 35.1304 33.713 35.2761 33.8742ZM34.5022 33.22L34.5519 33.2458C34.5593 33.2607 34.5531 33.2627 34.5022 33.22ZM21.6641 22.6545C21.6387 22.7015 21.3033 22.33 21.1346 22.1436C21.2835 22.2836 21.5004 22.4723 21.6641 22.6545ZM8.35067 9.335L8.00574 9.05431C8.13479 9.14671 8.20061 9.19426 8.35067 9.335ZM4.48515 3.58844C4.48297 3.57233 4.46572 3.54379 4.43976 3.50749C4.46671 3.54263 4.48257 3.57 4.48515 3.58844ZM4.43976 3.5073C4.25441 3.26621 3.54078 2.66018 3.3477 2.38027L3.36395 2.42395L3.15462 2.19217L3.07791 2.10715C3.06621 2.09395 3.05194 2.07939 3.0442 2.06911C3.03969 2.06121 3.03506 2.05338 3.03033 2.04562L3 2C3.0222 2.04212 3.18951 2.20168 3.32589 2.33718L3.7739 2.78383C4.07104 3.08374 4.34104 3.36715 4.43976 3.5073Z" fill="#202020"/>
</svg>
