<svg width="40" height="72" viewBox="0 0 40 72" fill="none" xmlns="http://www.w3.org/2000/svg">
<path d="M32.956 3.5255C33.2733 3.20058 33.6006 2.96637 33.4982 3.10484C34.1074 2.40665 34.182 2.45171 34.1651 2.2676C34.54 1.80344 35.0632 1.429 34.6211 1.94152L35.7841 0.683815L35.0352 1.38355C35.0923 1.2445 35.3915 0.96503 35.6932 0.679735L35.8056 0.572727L35.8336 0.54612L35.8474 0.532913L35.9083 0.478923L35.968 0.431731L36.0263 0.385119L36.0549 0.362009C36.0631 0.355017 36.0911 0.338315 36.1082 0.327245C36.1872 0.27811 36.2676 0.233636 36.3454 0.194406C36.4246 0.153816 36.4823 0.142162 36.5477 0.117498C36.6106 0.098271 36.6685 0.0730237 36.7248 0.0635074C36.8368 0.0405906 36.9312 0.0209747 37 0L36.8647 0.0100993C36.7453 0.01714 36.6274 0.0394718 36.5139 0.0765197C36.4421 0.0990481 36.3711 0.115362 36.2746 0.167799C36.2276 0.19152 36.1814 0.21665 36.1361 0.243152L36.0666 0.284907C36.0474 0.296166 36.0289 0.308622 36.0113 0.322195L35.8808 0.427651L35.8724 0.434449L35.8134 0.486497L35.7982 0.501645L35.7676 0.531943L35.7057 0.592924L35.0465 1.2445L35.0845 1.15206C34.8129 1.47658 34.2132 2.03707 33.9968 2.22507C34.0151 2.17981 33.9717 2.17768 34.2031 1.94676C32.5946 3.50413 33.9208 2.51366 32.6199 3.83876C32.7007 3.75603 32.8052 3.65659 32.956 3.5255ZM31.3865 4.64997L30.9347 5.2998L29.9695 6.18792C29.9959 6.23434 29.3429 6.93 29.8377 6.51051C29.9223 6.41651 30.09 6.23143 30.2377 6.09373C30.213 6.27377 29.0309 7.34949 29.3873 7.15936C30.1075 6.41496 30.2389 6.32115 30.6304 5.81232C31.3175 5.15609 31.8308 4.69095 32.1772 4.40954C32.3668 4.20077 32.3463 4.12522 32.5928 3.86556L32.4219 4.0386L32.2743 3.94849C32.0859 4.18193 31.8718 4.3674 31.637 4.60142L32.5942 3.39344C32.1279 3.62901 31.1157 4.74591 30.6384 5.12093C31.2735 4.69833 30.2627 5.58548 31.3865 4.64997ZM32.5928 3.86595L32.6195 3.83934L32.5928 3.86595ZM25.123 57.4497C24.8876 57.224 24.7905 57.1846 24.7424 57.1656L27.3715 59.7276C27.3208 59.6165 26.6033 58.8398 27.1276 59.3149C26.937 59.0607 26.2203 58.4196 26.0782 58.3638L26.3168 58.5029C25.6498 57.9723 25.3576 57.4505 25.7885 57.8002L25.7368 57.7511L23.8233 56.3462C24.425 56.9605 24.379 56.7292 25.123 57.4497ZM35.3002 4.24291C34.9709 4.58588 34.9403 4.63793 34.9906 4.61152C35.0982 4.49222 35.2015 4.36927 35.3002 4.24291ZM23.3758 56.018L22.7765 55.5777C23.0069 55.7636 23.2183 55.9179 23.3758 56.018ZM28.1419 58.4677C28.1469 58.4648 28.1561 58.467 28.1475 58.4483L27.8739 58.2553L27.8799 58.2611L28.1419 58.4677ZM11.1777 44.6555L11 44.4924C11.0633 44.553 11.1222 44.6064 11.1777 44.6555ZM35.6822 65L34.4429 63.9295C34.6323 64.0486 34.0587 63.5085 34.3442 63.7102C34.2499 63.6287 33.8191 63.2344 33.9156 63.3624L34.1561 63.5929C33.4418 63.0878 33.7771 63.4888 32.681 62.5652C33.2566 63.241 33.5881 63.4601 33.9685 63.7442L34.2877 64.0293L35.3963 64.8429L35.6822 65ZM19.5843 20.6741L19.5791 20.6941C19.5883 20.6799 19.5879 20.6752 19.5843 20.6741ZM19.5596 20.7745L19.5791 20.6939C19.5322 20.7706 19.3069 21.0199 19.5596 20.7745ZM23.6325 56.1442C23.5983 56.1465 23.5085 56.1025 23.3758 56.0182L23.8233 56.3462L23.6325 56.1442Z" fill="#202020"/>
<path d="M25.5563 56.7744L26.5768 57.702L27 58C26.5953 57.6584 26.1313 57.2499 25.5563 56.7744ZM13.2176 46.4127C11.1178 44.4781 13.8482 46.7809 12.9189 45.8586C12.3263 45.3306 12.0659 45.1921 11.6874 44.8714C13.3885 46.3724 11.278 44.8351 12.9752 46.3661C12.6362 46.2395 11.6619 45.3454 11.1237 44.7908C10.5813 44.1002 11.7551 45.2467 11.9963 45.2927C11.3111 44.6819 11.4113 44.8088 11.0727 44.5946C10.0451 43.591 8.77881 42.6747 8.2874 41.9609C7.50542 41.27 7.50847 41.3608 7.01971 41C6.82782 41.0169 8.09552 42.1091 8.29473 42.4499C8.24508 42.387 8.14903 42.2638 8.19685 42.281L8.83232 42.9163C8.24467 42.2987 9.0238 42.8994 9.36565 43.2036C9.61044 43.4285 10.0974 43.8751 10.0019 43.8403L9.61186 43.518C10.0516 43.991 10.7316 44.4218 11.1742 44.9418C11.1768 44.9883 10.9768 44.822 10.9335 44.809C11.5647 45.2651 12.1 45.7736 12.9789 46.5008L12.3947 46.149C13.1722 46.6608 14.6397 48.0944 15.6184 49.1232C15.5208 48.999 15.3254 48.7931 15.4701 48.8909C16.1058 49.4387 16.4955 49.9367 16.1579 49.7234C16.8406 50.2006 18.3581 51.9167 19.2832 52.5723L23.5498 55.573C23.3877 55.4482 23.23 55.3187 23.0769 55.1844C22.8284 54.7812 22.6343 54.6204 23.3158 55.0967C22.6829 54.5951 22.8329 54.8726 21.9508 54.0549C22.3411 54.3341 22.533 54.3175 21.7026 53.5206C19.5082 51.6391 17.8547 50.5785 15.7578 48.8658C15.7556 48.7322 14.1937 47.3085 13.4607 46.5923C13.8223 46.7891 14.4002 47.2891 14.9927 47.8147L13.5543 46.4506L13.2176 46.4127Z" fill="#202020"/>
<path d="M17.7949 50.6101C17.7482 50.5547 17.6968 50.5005 17.6438 50.4449C17.6678 50.4783 17.7124 50.528 17.7949 50.6101ZM14.5909 47.822C14.6009 47.8262 14.6005 47.8218 14.6061 47.8214L14.4155 47.6546L14.5909 47.822ZM23.6081 55.3883C23.7545 55.4867 23.8536 55.5681 24 55.6663L23.7126 55.4336C23.6137 55.3593 23.5615 55.3289 23.6081 55.3883ZM23.9081 55.8993L23.8115 55.8638L23.9455 56C23.9759 55.999 23.9735 55.9721 23.9081 55.8993ZM5.21732 38.1731L5 38C5.12295 38.1117 5.18154 38.1545 5.21732 38.1731Z" fill="#202020"/>
<path d="M10.7527 44.7218C11.477 45.4079 10.9424 44.7041 11.9581 45.6837L11.6666 45.39C12.4393 46.0503 13.699 47.3059 14.5682 48.138C14.4292 48.0839 15.0426 48.6932 14.8772 48.6576C15.4837 49.2143 16.084 49.766 16.4551 49.9963C16.8 50.3713 17.4152 50.8522 17.8535 51.3287C17.6958 51.1012 18.6486 51.8422 17.467 50.7931C17.5638 50.8766 17.5153 50.8126 17.6112 50.8945C16.9349 50.1367 16.55 49.9426 15.9195 49.3364C15.5816 48.9361 16.5967 49.8707 16.2571 49.513C15.4356 48.7887 13.8376 47.0875 13.7451 47.2773C13.1631 46.7351 13.116 46.6281 12.972 46.4381C11.9134 45.7133 9.68098 43.133 9.49243 43.331C9.83045 43.6424 10.3645 44.1659 10.891 44.593L10.7527 44.7218ZM22.4821 55.2082L22.3443 55.0715L22.4821 55.2082ZM30.9673 64.5017L30.5384 64.3362C28.7989 62.7161 28.2176 62.0848 26.7182 60.6471C26.6217 60.5199 26.8141 60.684 26.9116 60.7673C25.8464 59.7676 24.3017 58.2242 23.4782 57.5431C23.145 57.2194 22.3084 56.3329 22.6785 56.6169C22.5044 56.4708 22.3074 56.302 22.1245 56.1174C22.1211 56.0251 22.5564 56.509 22.605 56.4827C22.4599 56.3366 22.411 56.2721 22.3622 56.2532C22.6515 56.4557 22.2603 55.852 23.4208 56.9781C23.7633 57.5172 22.6013 56.211 22.7482 56.5831C23.1333 56.9563 23.1346 56.8686 23.1821 56.8865C23.6712 57.3637 23.6283 57.3803 23.5749 57.3812C23.8003 57.5275 24.3674 58.1744 24.6838 58.3714C25.6494 59.2859 24.5422 58.4077 25.1683 59.0093L25.6492 59.2404L26.6648 60.2651C28.2107 61.6757 26.6584 59.8561 28.4452 61.4494C28.1563 61.292 28.7397 62.0599 29.5145 62.8563C29.0316 62.3985 28.0681 61.6205 27.4863 60.9894C28.2627 61.9216 26.2765 59.8431 26.6201 60.3839C27.1018 60.7502 27.8262 61.4361 28.3582 62.0033L28.1636 61.837C28.7459 62.4241 29.3229 62.7371 30.0958 63.5765C30.508 63.9668 30.3974 63.926 30.2973 63.8838C30.6607 64.1996 30.9928 64.4748 30.9673 64.5017ZM30.0529 63.6677L29.5189 63.1288C29.6285 63.2733 29.8327 63.4693 30.0529 63.6677ZM24.2576 12.8048L24.4333 12.6541C24.3916 12.6838 24.3261 12.742 24.2576 12.8048ZM24.9842 61.0003L24.672 60.691C24.7738 60.7962 24.8779 60.8993 24.9842 61.0003ZM17.4875 54.5322L16.9974 54.1134C17.1815 54.2879 17.3356 54.4149 17.4875 54.5322ZM20.4783 16.4374L20.462 16.4516L20.3955 16.5283L20.4783 16.4374ZM3.53395 40.5148C3.46084 40.4205 3.38382 40.3291 3.30309 40.2407C3.3041 40.2647 3.39173 40.366 3.53395 40.5148ZM17.5779 54.6094L17.5522 54.5802C17.5306 54.5643 17.509 54.5484 17.4875 54.5324L17.5779 54.6094ZM27.7587 64.3589L27.9732 64.5427C27.8753 64.4529 27.8125 64.4007 27.7587 64.3589ZM27.6553 63.5981C27.7313 63.6656 27.8046 63.7292 27.864 63.7764L27.6553 63.5981ZM39 69L38.557 68.6058C38.7681 68.8059 38.8999 68.9201 39 69ZM28.703 64.7623C28.7333 64.7808 28.7637 64.7994 28.7854 64.8101C28.7228 64.757 28.6877 64.7368 28.703 64.7623ZM27.323 10.54L27.2976 10.5652L27.301 10.5894L27.323 10.54ZM28.1825 9.3707L28.5467 9C28.4208 9.11937 28.2993 9.24302 28.1825 9.3707ZM3.34681 33.055C3.47694 32.963 3.76238 32.7276 3.65884 32.8661C3.84941 32.6335 3.77407 32.5884 3.34681 33.055ZM26.0031 13.2735C26.0547 13.1924 26.1266 13.0989 26.1991 13.0051C26.0591 13.1743 25.9354 13.3217 26.0031 13.2735ZM26.1991 13.0051L26.4026 12.756C26.3292 12.8417 26.2605 12.926 26.1991 13.0051ZM2.02312 36.4799C2.00439 36.5019 1.99895 36.5373 2.00016 36.5859C2.02776 36.5698 2.02192 36.5328 2.02312 36.4799Z" fill="#202020"/>
<path d="M28.5101 8.03567C28.5477 7.94295 30.0841 6.30985 28.7258 7.61844C28.6896 7.48072 29.5472 6.72961 29.8838 6.35543C29.6028 6.59131 29.9566 6.17252 29.8464 6.21927C29.6792 6.40471 29.4934 6.63748 29.1932 6.92051C29.0181 7.01381 29.4364 6.54827 29.7995 6.22044C29.3242 6.59677 30.2736 5.61601 29.6313 6.17856C28.3651 7.48617 27.4801 8.41999 26.6963 9.44477C27.4144 8.69601 28.2157 7.85588 28.8574 7.29372L28.6787 7.6196C27.9262 8.22851 27.5532 8.69425 26.8718 9.35108L28.4268 7.8999C29.1995 7.26392 28.7394 7.74544 28.1941 8.30954C28.3326 8.17475 28.4616 8.05671 28.5101 8.03567ZM28.1575 9.6978L28.1852 9.67501C28.2046 9.65047 28.2305 9.62164 28.2412 9.6045L28.1575 9.6978ZM36.9996 69.9942L36.8405 69.8943C36.9622 69.9886 37.0047 70.0127 36.9996 69.9942ZM26.8853 10.2241L26.8863 10.2231C26.886 10.2235 26.8856 10.2238 26.8853 10.2241ZM36.063 69.009C36.0695 69.0117 36.0763 69.0139 36.0868 69.0197C36.0729 69.0104 36.0705 69.0127 36.063 69.009ZM33.5565 69.7728C33.5588 69.7823 33.5575 69.7872 33.5679 69.8045C33.6414 69.8682 33.6113 69.832 33.5565 69.7728ZM36.0533 69.0137C36.0557 69.0113 36.0559 69.0071 36.063 69.0092C36.0581 69.009 36.05 69.0061 36.0533 69.0137ZM20.0343 53.7948C20.0343 53.7948 20.0709 53.8566 20.1366 53.9462C20.174 53.969 20.1518 53.931 20.0343 53.7948ZM23.0286 56.964L23.0769 57.0283L23.0286 56.964ZM2.36232 32.7873C2.23906 32.9064 2.11826 33.028 2 33.1519C2.12449 33.034 2.24532 32.9124 2.36232 32.7873ZM36.0868 69.0197C36.1273 69.0437 36.1818 69.0809 36.2682 69.1457C36.1734 69.0739 36.1206 69.0386 36.0868 69.0197ZM14.9125 49.5103L15.0164 49.596L14.9634 49.5364L14.9125 49.5103Z" fill="#202020"/>
<path d="M13.6402 47.9581C13.7039 48.0044 13.7384 48.0205 13.7769 48.0439C13.1684 47.5009 12.1427 46.4114 11.9365 46.367C12.1342 46.5599 13.102 47.6175 12.8818 47.4924C13.3042 47.8728 13.842 48.5208 14.0719 48.7233C13.4557 48.0221 14.0685 48.5844 14.5416 49.0012C14.9236 49.4282 14.4004 48.9898 14.7346 49.3524L15.6816 50.2772L14.8751 49.4533L15.201 49.623L15.1105 49.5474C13.6915 48.2071 15.1063 49.3174 13.6402 47.9581ZM13.7769 48.0439C13.8683 48.125 13.9501 48.195 14.0176 48.2452C13.8858 48.1168 13.8272 48.0742 13.7769 48.0439ZM8.25708 42.294L8 42.0626L8.25708 42.294ZM27.195 59.1735C27.1964 59.2202 27.9548 60.0693 28 59.9954L27.297 59.2582L27.195 59.1735ZM10.1535 26.8439C10.0622 26.9315 9.97141 27.0203 9.88223 27.1109L9.83922 27.1723C9.90295 27.1266 10.0695 26.9388 10.1535 26.8439ZM12.6046 47.2726C12.7614 47.4105 12.8366 47.4665 12.8816 47.4924C12.7811 47.4019 12.6853 47.3217 12.6046 47.2726ZM10.3461 26.9349C10.4775 26.8381 10.6718 26.6964 10.7186 26.6953C10.953 26.4631 11.0858 26.2685 11.3126 26.0204C11.0526 26.2964 10.7359 26.5998 10.3461 26.9349ZM11.3308 26L11.3126 26.0204L11.3308 26Z" fill="#202020"/>
<path d="M26.723 58.1123L26.4924 57.9145L26.6221 58.0083L26.0768 57.4464C25.995 57.3762 25.9143 57.3046 25.835 57.2317C25.8736 57.2649 25.9083 57.2858 25.9324 57.2964L25.759 57.1151C25.2473 56.7425 24.0846 55.7084 23.7254 55.4331C23.2723 55.0476 22.7353 54.5583 22.4128 54.2379C22.7148 54.532 23.13 54.9084 23.0441 54.7583C22.4646 54.1288 22.2695 53.7391 21.1171 52.7996L21.7418 53.4001L20.2055 52.1771C19.7704 51.6489 20.9722 52.7874 21.2154 52.9285C20.059 51.9401 19.3301 50.8935 18.7081 50.5184C18.7063 50.3829 18.7022 50.1558 17.9802 49.4721C18.4169 50.0464 17.5006 49.1071 17.8392 49.5973C17.5524 49.3971 17.0662 48.8029 16.9735 48.8131L17.069 48.85C15.9575 47.565 15.3858 47.3449 14.8068 46.8952C13.3163 45.5106 12.6898 44.8187 11.4856 43.6785C11.4852 43.5884 11.2881 43.1517 10.8047 42.6944C10.5195 42.5402 9.41126 41.5265 9.22042 41.4976C10.0422 42.3559 9.98778 42.1081 10.5185 42.5844C10.8605 43.0775 10.4738 42.7022 11.0056 43.3131C10.5685 42.8277 8.83855 41.3056 8.40309 40.7325L8.59573 40.8971C7.82235 40.0576 7.8645 39.7141 6.37553 38.5089L5.67319 37.9259C5.71272 37.9486 5.72576 37.943 5.74964 37.9523C5.21947 37.4323 5.05011 37.2207 4.85686 37.0052C4.80601 36.9483 4.75396 36.8923 4.70074 36.8374C4.62869 36.7636 4.5551 36.6912 4.48001 36.6202C4.30703 36.4559 4.07626 36.248 3.71405 35.9334C3.82583 36.0304 3.77706 35.9663 3.88864 36.0636C3.74482 35.9067 3.59557 35.7546 3.44114 35.6075C3.72589 35.33 3.98155 35.0533 4.23178 34.7788L4.59961 34.3752L4.90783 34.0429C5.28529 33.8079 4.90021 34.1778 4.75673 34.4101C5.96596 33.2925 7.12784 31.9484 7.78082 31.1601L8.58289 30.4616C8.15828 30.9252 7.67607 31.5272 7.85466 31.4331C8.26062 31.0151 8.14784 31.0628 8.75386 30.5025C8.69547 30.6416 8.48657 30.9206 8.26162 31.242C9.56035 30.1268 8.38383 30.8303 9.37393 30.1283C9.76022 29.7569 9.92156 29.4802 9.91193 29.3895L10.6781 28.7806C10.6897 28.642 11.548 27.8058 12.103 27.2507C12.1436 27.1567 11.5777 27.6219 11.389 27.8533C11.3794 27.7626 11.9561 27.1587 12.3438 26.7863C12.6238 26.7832 14.8548 24.3231 14.5608 24.9218C16.2523 23.2016 18.6778 20.8328 19.766 19.6703C20.1822 19.3423 20.9544 18.6006 20.5578 19.109C21.9563 17.7599 22.535 16.9265 23.9604 15.6235C24.0924 15.5294 23.3343 16.2304 23.4298 16.2273C24.2812 15.2982 25.1383 14.6908 26.5085 13.2966C26.2743 13.5275 26.2338 13.6217 26.2153 13.6674C26.1677 13.6692 26.7441 13.0648 27.086 12.6919C27.3025 12.5059 26.8301 12.9709 26.9624 12.8771C29.7477 10.3176 31.6304 8.13652 34.34 5.53228C33.5662 6.27591 33.3659 6.64617 33.3954 6.69054L34.1534 5.96183C34.399 5.63614 34.9671 5.08801 35.4076 4.59645C35.483 4.55673 35.7326 4.35155 35.5187 4.60013C36.3122 3.92374 36.8536 3.32 37.4317 2.67015L37.8766 2.17221L37.9334 2.10866L37.9673 2.0577C37.9906 2.02457 38.0175 1.99376 38.0291 1.95385C38.0658 1.88235 38.0847 1.80195 38.0917 1.72115C38.0977 1.63977 38.0895 1.55549 38.0632 1.47547C38.0474 1.43808 38.0379 1.38828 38.0183 1.36891C38.0104 1.35547 38.0037 1.3414 37.9984 1.32686L37.9942 1.31504L37.9771 1.29547L37.943 1.25614L37.8742 1.17651L37.8655 1.16643L37.8643 1.16527C37.9121 1.21642 37.877 1.17903 37.8874 1.19026L37.8856 1.1891L37.882 1.18658L37.868 1.17651L37.8401 1.15578L37.7861 1.11121C37.7643 1.10149 37.7429 1.09102 37.7219 1.07983C37.6767 1.0496 37.644 1.04921 37.6109 1.03216C37.6031 1.02189 37.5595 1.01783 37.5192 1.01376L37.3996 1L37.5348 1.00155C37.5533 1.00252 37.587 1.00039 37.5991 1.00426C37.6286 1.01219 37.6589 1.017 37.6896 1.0186L37.756 1.04418C37.807 1.05638 37.8521 1.08719 37.9027 1.11916L37.9223 1.13078L37.9326 1.1366L37.9374 1.1395L37.9388 1.14028L37.9394 1.14066C37.9312 1.13175 37.9591 1.1612 37.9209 1.12052L37.9237 1.12342L37.9697 1.16915C38.0009 1.20042 38.032 1.23167 38.0632 1.26292C38.1186 1.33868 38.1973 1.47799 38.2151 1.62602C38.2272 1.77563 38.1987 1.9257 38.1322 2.06138C38.0899 2.12493 38.0582 2.18093 38.0024 2.24487L37.8485 2.42041L37.531 2.78273L38.1439 2.3152L37.2533 3.33764C37.8834 2.81683 38.2825 2.24738 38.4053 2.17434C38.3921 2.22181 38.3538 2.27412 38.3098 2.3305L38.2422 2.41692L38.1764 2.48803C38.0913 2.58084 38.0227 2.66221 38.0369 2.68488C38.1842 2.55255 38.2896 2.46826 38.3889 2.33922C38.4399 2.284 38.469 2.22394 38.4954 2.16814C38.5223 2.11253 38.5488 2.06235 38.5577 2.00771L38.5916 1.85155L38.5956 1.68724C38.601 1.63009 38.5856 1.57002 38.5763 1.50376C38.5705 1.43691 38.547 1.36736 38.5187 1.28985C38.6167 1.48477 38.6534 1.74828 38.5735 2.01546C38.5342 2.14741 38.4712 2.284 38.3728 2.40103C38.3504 2.4299 38.3243 2.46536 38.3028 2.48919L38.2384 2.55952L38.1064 2.70212C37.7262 3.10873 37.3403 3.51029 36.9487 3.90669L34.7498 6.12052C34.577 6.30865 34.873 5.93568 34.891 5.89034C34.4191 6.35515 34.089 6.58882 33.5134 7.19178C33.2006 7.60932 33.8417 6.95967 34.1437 6.68027C34.155 6.76979 34.0031 6.91045 33.6814 7.23596C33.5407 7.23809 31.8489 8.95785 31.34 9.28606C29.602 11.0062 31.8007 9.18764 30.0527 10.8171L29.4603 11.236C28.5244 12.258 27.2889 13.556 26.1433 14.6294L26.3784 14.3973C26.5031 14.2117 26.2203 14.4442 26.0871 14.5393C25.2003 15.33 24.5301 16.1628 23.9341 16.5851C23.0457 17.6056 21.4863 19.2316 20.4178 20.3475C20.0132 20.5362 21.7799 18.861 22.1772 18.3512L21.1655 19.3291C21.7897 18.7236 21.9972 18.4465 22.3129 18.0269C21.4063 18.8649 21.206 19.2347 20.3913 20.0725C20.4284 19.9818 20.2986 20.0735 19.9099 20.4472L19.8691 20.6206C19.8563 20.622 19.8081 20.6584 19.6839 20.7698L18.2297 22.2557C18.5768 21.9777 18.6527 22.0213 19.0402 21.6487C18.8616 21.7429 19.1816 21.4185 19.5695 21.0461C19.276 21.4172 19.9849 20.7189 20.0142 20.7629C19.2366 21.51 18.2931 22.439 17.8036 22.9484L17.5745 23.0462C16.8192 23.7443 16.0741 24.5323 15.5541 24.9985L15.6784 24.8131C14.7719 25.6505 13.9398 26.5334 13.0901 27.2335C12.3721 28.0678 11.437 29.0881 10.8669 29.786C10.6036 30.1996 8.44222 31.9271 7.66663 32.9004C7.5976 32.9498 8.21707 32.249 8.49018 31.925C7.88416 32.4855 7.51513 33.0399 7.24242 33.1358C8.60276 31.8785 7.10155 33.1379 7.67667 32.5349C7.055 33.1383 6.41346 33.7881 6.13874 34.1133C7.1467 33.1385 5.90034 34.575 6.88382 33.5523C6.54188 33.9495 6.12489 34.4002 5.677 34.8584L5.24255 35.2998C5.13515 35.405 5.02467 35.5073 4.91125 35.6065L4.96924 35.6695C4.89419 35.6695 4.91647 35.7243 5.07861 35.9109C5.08242 35.9148 5.29934 36.0192 5.29553 36.0155C5.39566 36.1217 5.27646 36.0376 5.17091 35.9692C5.06737 35.9026 4.97767 35.8516 5.21105 36.0954C5.29593 36.155 5.33606 36.1787 5.50683 36.3333C5.6588 36.4699 5.80859 36.6088 5.95613 36.7499L6.89948 37.6679C7.51995 38.2735 8.08624 38.8075 8.37219 38.9176C9.00089 39.6558 6.97774 37.7041 7.94456 38.7982C7.27172 38.2685 6.50035 37.3863 6.21319 37.2747C6.83627 37.8291 6.35908 37.5557 6.74436 37.9294L7.46496 38.5229L7.32048 38.3772C8.52189 39.3806 10.2581 41.1322 11.7025 42.5003C13.0008 43.5868 13.96 44.2719 15.4042 45.6846C14.9244 45.3192 16.5627 46.8973 15.5547 46.1035C16.1826 46.796 16.8996 47.3861 16.9504 47.3627C16.3715 46.7787 16.7543 47.1502 16.2743 46.651C16.6562 46.932 17.4298 47.683 17.7188 48.0193C17.5743 47.8734 17.6218 47.936 17.5751 47.9184C18.2511 48.63 17.959 48.2018 18.4885 48.6765C18.5869 48.8943 19.599 49.7815 20.0325 50.2634L20.7992 50.8288C20.3682 50.5277 21.4255 51.4755 21.4771 51.6315C22.0041 52.0591 22.4845 52.3803 23.2069 53.1089C22.8707 52.8444 23.8358 53.8027 23.788 53.8734C24.9946 55.1502 26.0469 55.736 27.1578 56.9762C27.1067 56.9539 26.8251 56.7588 27.16 57.1114C27.4526 57.3614 27.9282 57.8343 28.23 58.1129L28.2188 58.1056L28.236 58.1187C28.3835 58.2549 28.4821 58.3355 28.5001 58.3247C29.0644 58.7552 29.3851 58.948 30.4289 59.859C30.4251 59.7217 29.5594 58.9375 29.174 58.6084L28.7917 58.3712C28.596 57.9806 27.8772 57.5233 27.684 57.2689C28.4026 57.7262 30.0892 59.4128 31.1943 60.3345C30.6629 59.6352 29.312 58.3016 28.1084 57.1622L28.5918 57.709L27.9669 57.1081L28.4969 57.762C27.9192 57.179 27.3896 56.7043 26.8598 56.1847C27.4863 56.7869 27.6344 57.1143 27.2957 56.7582C26.667 56.02 26.5255 56.1002 25.9972 55.5821C26.2873 55.8745 26.6716 56.2479 26.3835 56.0462C25.4166 54.9522 25.0789 54.7306 24.213 53.723C24.216 53.9488 23.0086 52.5822 22.771 52.5355L23.2045 52.9726L22.1949 52.1325C21.4217 51.2044 23.0584 52.7814 21.8054 51.443C20.5994 50.256 20.5097 50.4037 19.5434 49.488C19.9273 49.7263 20.7451 50.4029 21.5156 51.1504L21.0808 50.667C21.3679 50.8677 22.4281 51.9074 22.9572 52.4261C21.9976 51.651 23.3455 52.8475 23.6849 53.2939C23.8247 53.3011 23.2486 52.7651 23.9696 53.3586C23.3425 52.7556 23.2456 52.6727 22.4744 51.8799C24.1651 53.5706 24.2513 53.1521 25.6978 54.656C24.9756 54.0164 25.8437 54.9813 25.8948 55.0927C26.2285 55.3996 26.9052 56.0225 27.1936 56.2688L27.0431 55.939C27.9593 56.7439 28.0608 57.2329 29.1693 58.1129C29.3578 58.1842 28.3004 57.2366 28.4933 57.4011C29.9351 58.6773 30.2786 59.3066 31.4337 60.5608C31.5318 60.5999 31.5782 60.5277 32.0576 60.8933C31.8655 60.8185 32.1537 61.1535 31.6287 60.7278C32.0148 61.1473 32.543 61.5759 32.9271 61.9035C32.1067 61.0465 33.3589 62.1612 33.5506 62.28C33.9832 62.7165 33.3585 62.205 33.0698 61.9583C33.4095 62.3162 33.747 62.8051 34.0346 62.9169C33.9882 62.9887 32.8831 62.112 32.2089 61.4914L32.6429 61.9293C32.3064 61.664 32.2578 61.6003 31.8268 61.1659C32.2113 61.6276 32.117 61.6363 31.9735 61.5809C31.9257 61.5179 32.0193 61.5974 31.9739 61.5369C31.6346 61.1795 31.3458 60.9328 31.396 61.0433C30.9958 60.8135 31.8372 61.5672 32.0371 61.8384L32.5946 62.3455L34.6982 63.8734C35.5159 64.6042 35.8075 65.0065 36.3597 65.6154L36.5917 65.705C37.2696 66.3734 37.894 67.0188 37.3667 66.6801C37.3653 66.6338 37.2694 66.5519 37.1239 66.405C37.0946 66.3951 37.0536 66.3686 37.0049 66.3319C36.9864 66.3221 36.9746 66.3184 36.9587 66.311L38.2328 67.4641C36.8857 66.3589 38.0439 67.5261 37.7118 67.4441C38.0077 67.7121 38.3035 67.98 38.5994 68.248L38.7092 68.3474L38.8522 68.5033L38.8916 68.5469C38.8956 68.5502 38.9078 68.5671 38.9195 68.5837L38.9516 68.6306C38.9925 68.6917 39.026 68.7475 39.0521 68.7936C39.1049 68.8868 39.1288 68.9408 39.126 68.9379C39.0671 68.7979 38.9943 68.6637 38.9086 68.5373C38.9021 68.5281 38.8954 68.519 38.8888 68.5099L38.854 68.4619C38.8373 68.4377 38.8206 68.4134 38.8041 68.389L38.7997 68.3821L38.7991 68.3813L38.7413 68.3195L38.7401 68.3177L38.7377 68.3146L38.729 68.3036L38.7166 68.2858C38.7039 68.2662 38.7072 68.2621 38.722 68.2699C38.7294 68.2738 38.7397 68.2805 38.7525 68.2896L38.7625 68.297L38.7633 68.2976L38.8233 68.3615L38.8246 68.3627L38.8272 68.365L38.8322 68.3697L38.8542 68.3908C38.8864 68.4225 38.9229 68.4582 38.9678 68.507C39.0517 68.6188 39.1378 68.7558 39.205 68.894C39.2502 69.011 39.2927 69.1323 39.3206 69.2458C39.3405 69.3611 39.3531 69.4692 39.3611 69.5576C39.3445 69.6133 39.3321 69.6701 39.324 69.7275C39.3078 69.8137 39.2977 69.9278 39.2516 70.0571C39.2313 70.122 39.208 70.1917 39.1815 70.2646C39.148 70.3347 39.1095 70.4081 39.0674 70.4835C39.028 70.561 38.9757 70.6331 38.9153 70.7042L38.8243 70.8123L38.7766 70.8662L38.7706 70.8728L38.6999 70.9344L38.6925 70.9406L38.6775 70.953L38.5556 71.0547C38.4718 71.1144 38.346 71.1886 38.2344 71.2438L38.1473 71.2853L38.0736 71.3104L37.9243 71.3568C37.825 71.3895 37.7235 71.4046 37.6217 71.4143C37.4199 71.4437 37.2212 71.4207 37.0406 71.3938C36.862 71.35 36.6971 71.3042 36.5676 71.2295L36.6549 71.25C36.5349 71.1855 36.3987 71.1221 36.2811 71.0188C36.2209 70.9708 36.1558 70.9164 36.0995 70.8652L36.0043 70.7693L35.5837 70.3578C35.2976 70.0835 35.0068 69.8137 34.7116 69.5485C34.7116 69.5932 33.9445 69.072 33.562 68.8349C34.4104 69.704 33.8636 69.2301 33.8907 69.3394C33.804 69.2483 33.6423 69.0904 33.6144 69.0807C33.4693 68.979 33.7578 69.2702 33.7597 69.3161C34.2405 69.7492 34.7223 70.1942 35.1435 70.5651C35.3321 70.7329 35.525 70.8963 35.7218 71.0551L35.8743 71.1744C35.964 71.2434 36.0529 71.305 36.1378 71.3585C36.3114 71.4602 36.4837 71.5218 36.6236 71.5635C36.4282 71.4612 36.2431 71.3703 36.0932 71.2479C36.0188 71.1921 35.9323 71.1239 35.8743 71.0756L35.7718 70.9929C35.6337 70.8834 35.4894 70.7712 35.3445 70.6031C35.4846 70.7057 35.6203 70.8137 35.7513 70.9268C35.7862 70.9572 35.8217 70.9878 35.8577 71.0194L35.9223 71.076L36.0453 71.1752C36.2082 71.312 36.4065 71.4145 36.617 71.5059C37.0755 71.6802 37.5812 71.7011 38.0534 71.5652C38.1158 71.5472 38.1782 71.5278 38.2404 71.5065C38.3163 71.474 38.3929 71.4372 38.4678 71.3967C38.5428 71.3562 38.6167 71.312 38.6877 71.2653C38.7098 71.2508 38.7162 71.2455 38.7208 71.2419L38.7395 71.2273L38.777 71.1983L38.8526 71.1392L38.8621 71.1316L38.8669 71.1279L38.9558 71.05L38.9602 71.0454L38.9953 71.0076L39.0648 70.9303C39.1565 70.8249 39.246 70.7166 39.3118 70.5883L39.3792 70.4903C39.4205 70.431 39.4703 70.3498 39.507 70.2617C39.5468 70.1747 39.5829 70.0846 39.6082 70.0164C39.6316 69.948 39.6403 69.9005 39.6403 69.9005L39.6501 69.7996C39.6535 69.7352 39.666 69.643 39.6585 69.5333C39.6494 69.4082 39.6331 69.2837 39.6098 69.1604C39.571 69.0244 39.5331 68.8928 39.4667 68.7436C39.4039 68.6181 39.3316 68.4973 39.2504 68.3821L39.2106 68.3274C39.195 68.3061 39.1972 68.3113 39.1896 68.302L39.0726 68.1749L38.9855 68.0821L38.9787 68.0761L38.9654 68.0641L38.9409 68.0424L38.9012 68.0068C38.8791 67.987 38.8663 67.9759 38.8663 67.9759C38.9108 68.0114 38.9474 68.0383 38.9793 68.0604L38.9911 68.0684L38.9967 68.0722L38.9971 68.0726L39.079 68.1598L39.0798 68.1604L39.081 68.1616L39.0838 68.1637L39.1039 68.1794L39.1408 68.2069L39.2086 68.2532L39.2433 68.2772C39.259 68.2908 39.2949 68.3356 39.3218 68.3691C39.38 68.4433 39.445 68.5347 39.514 68.6556L39.5652 68.751L39.6009 68.8374C39.625 68.8984 39.6499 68.9668 39.674 69.0433C39.7561 69.3442 39.8439 69.8143 39.5995 70.4289C39.6405 70.3581 39.7374 70.1671 39.7755 69.8854C39.7928 69.7438 39.8114 69.5818 39.7882 69.4051C39.7798 69.3134 39.767 69.2221 39.7498 69.1315C39.7256 69.0389 39.6967 68.9436 39.6631 68.8476C39.6236 68.687 39.4099 68.3373 39.3003 68.209L39.2054 68.1034L39.091 67.9802L39.0645 67.9558L39.0116 67.907C38.8748 67.7815 38.7417 67.6524 38.6124 67.5197L38.2797 67.3476C38.4212 67.4009 37.3611 66.3612 38.179 67.0374C38.4934 67.3116 38.8078 67.5858 39.1223 67.8599L39.1494 67.8835L39.1627 67.8952L39.1693 67.901L39.1709 67.9023L39.2708 68.0089L39.2738 68.012L39.3627 68.1067L39.4021 68.1488C39.4031 68.1476 39.4312 68.1858 39.4442 68.2034L39.4912 68.2691C39.551 68.3551 39.5989 68.4342 39.6363 68.4997C39.7111 68.6326 39.7432 68.7089 39.7398 68.7035C39.744 68.7095 39.7125 68.6217 39.6489 68.4904C39.6126 68.4158 39.5732 68.3428 39.5307 68.2714L39.4215 68.0978L39.3358 67.9572L39.2307 67.8446L39.2293 67.8428L39.2269 67.8395L39.2221 67.8332L39.2132 67.8215C39.2078 67.8144 39.2028 67.808 39.199 67.8025C39.1912 67.7921 39.1864 67.7863 39.1864 67.7863L39.2321 67.8289L39.2375 67.8341L39.3481 67.9517L39.3593 67.9645L39.3846 67.9936C39.4029 68.0143 39.4231 68.0379 39.4456 68.0633L39.4627 68.0831L39.4713 68.0932C39.4774 68.0999 39.4831 68.107 39.4882 68.1145C39.6073 68.2752 39.7103 68.4465 39.7956 68.6262C39.8425 68.7366 39.8726 68.8341 39.9064 68.9449L39.9509 69.109C39.9605 69.1646 39.9684 69.221 39.9754 69.2774C40.0496 69.731 39.9437 70.1894 39.8203 70.5099C39.7492 70.6672 39.6774 70.7947 39.626 70.8819C39.5761 70.9704 39.5375 71.0134 39.5375 71.0134C39.5375 71.0134 39.5449 71.002 39.5584 70.9824C39.572 70.963 39.5893 70.9338 39.6078 70.8972C39.6457 70.8247 39.6938 70.7265 39.7364 70.6269C39.7768 70.537 39.8082 70.4437 39.8303 70.3481L39.8612 70.2183C39.8371 70.3054 39.8104 70.3897 39.7819 70.4705C39.7516 70.5504 39.7115 70.6249 39.6744 70.6978C39.6363 70.7705 39.5967 70.8398 39.5566 70.9059C39.5148 70.9706 39.4667 71.0283 39.4211 71.0857C39.375 71.1425 39.3284 71.1963 39.2821 71.2475L39.2474 71.2853L39.2299 71.3037L39.2257 71.3083L39.2235 71.3106L39.1081 71.4114L39.1041 71.4147L39.0734 71.4395C39.0326 71.4716 38.9943 71.5019 38.9586 71.5306C38.7553 71.6764 38.4465 71.8357 38.2894 71.877C38.1174 71.9276 37.9671 71.9702 37.8336 71.982C37.5658 72.0103 37.3777 72.0031 37.2308 71.9752C37.0841 71.9496 36.9782 71.9299 36.8767 71.8888C36.7633 71.847 36.651 71.8027 36.5397 71.7561C36.4123 71.6896 36.2415 71.6115 36.0348 71.4637C35.9802 71.4223 35.9264 71.3799 35.8735 71.3364L35.7862 71.2628L35.7413 71.2233L35.7202 71.2031L35.543 71.0363C35.3683 70.8766 35.1913 70.7194 35.0118 70.5647C34.3898 70.1446 33.8116 69.6058 32.7994 68.5845C33.5692 69.2873 32.9423 68.595 33.2783 68.8147C32.5536 68.0395 32.2187 67.8651 31.7859 67.5177C31.6406 67.2821 31.5427 67.1097 32.2177 67.7752C32.4065 67.7578 31.3023 66.9258 31.3466 66.7629C29.0831 64.5835 29.1912 65.3463 26.6821 62.6665L26.8241 62.7206C25.0928 61.1523 24.1761 60.1681 22.5886 58.7006L21.4747 57.4139C21.7651 57.6617 22.5824 58.2931 22.2916 57.9106C22.776 58.5921 23.4463 59.1644 24.028 59.8406C24.1221 59.8763 23.8819 59.604 23.7858 59.4771C24.1717 59.8517 24.3164 60.0869 24.8465 60.562C24.8447 60.5162 24.3146 59.9514 24.7482 60.344L25.3753 61.081C26.3377 61.9479 25.9962 61.366 27.0575 62.4511C26.7936 62.3135 26.2909 61.9977 25.8535 61.6034C26.3395 62.098 25.1513 60.9962 25.5705 61.4711C26.3796 62.0787 26.6556 62.4826 27.6681 63.3514C27.5433 63.2551 27.4962 63.2435 27.2552 63.0217L28.6047 64.3981C28.3141 64.0158 29.8087 65.449 29.7577 65.2489C28.3115 63.7899 28.6988 64.2551 27.0579 62.5853C27.5526 63.0288 28.2473 63.5458 28.6087 63.7535C28.6203 63.7705 28.6422 63.7965 28.6926 63.8478C29.0273 64.0216 28.7857 63.7482 28.9259 63.6225C28.0605 62.9727 27.6256 62.3997 26.663 61.5772C26.4184 61.484 27.0948 62.1767 27.565 62.5935L26.7166 61.8692L26.908 61.9882L24.9041 60.0057C25.2926 60.3731 25.466 60.4575 25.699 60.6199C25.4401 60.3645 25.2003 60.0952 24.9463 59.8085C24.9336 59.9327 24.8471 59.9454 24.5931 59.6978C23.3048 58.4212 22.6426 57.6593 22.2416 57.1164L22.0847 56.9746C22.231 57.2558 21.0276 56.2054 20.5492 55.8863C20.6441 55.8336 19.9215 55.1936 19.5834 54.7933C19.2972 54.6831 19.4457 55.0555 19.8336 55.5654C20.7948 56.3418 20.4073 55.9663 20.9359 56.2614L22.4259 57.5567L22.0408 57.3174C22.7172 58.0288 23.4864 58.5969 23.3453 58.6328C22.9125 58.3297 22.3321 57.6996 21.9021 57.3995L22.337 57.8824C21.4247 57.1707 21.9986 57.3927 20.9391 56.4877C21.2307 56.9155 20.8432 56.4056 20.3648 56.0417C20.6554 56.4242 22.1443 57.7182 21.7155 57.553C21.14 57.106 20.1196 55.7205 19.3046 55.181L19.3528 55.1994C18.3561 54.2047 17.9263 53.9319 17.5006 53.6103C17.1111 53.1538 16.457 52.6355 15.985 52.1887L16.0339 52.1635L15.3589 51.542C15.7412 51.7793 16.1299 52.2899 16.7062 52.8273L16.7054 52.6921C17.2757 53.4024 17.837 53.7015 18.4032 54.1326C17.606 53.4793 16.3392 52.1068 16.0299 52.0709L15.6442 51.5629L15.4008 51.3767C15.1139 50.9977 15.5435 51.2527 16.218 51.8735C16.3147 52.001 16.3632 52.0645 16.3141 52.0451C16.651 52.3104 16.9857 52.5291 17.7095 53.2592L17.2779 52.9136C18.1941 53.8077 19.0584 54.5905 19.4423 54.829C18.1414 53.5169 16.8398 52.2484 15.5879 51.0458C15.0621 50.8419 14.537 50.5054 14.203 50.4653C13.3382 49.6823 12.1805 48.6035 11.5064 47.8492L11.6022 47.8858C11.2969 47.5658 10.9749 47.2611 10.6373 46.9729C10.3006 46.5735 10.9715 47.1463 10.7309 46.8737L9.48169 45.7623C9.62196 45.7699 10.6319 46.7444 11.1163 47.203C11.0202 47.1211 10.8266 46.9554 10.8763 47.0207C11.4071 47.5855 12.559 48.4801 12.707 48.8081C12.9954 49.0544 12.0842 48.3433 12.9994 49.2365C13.5796 49.8662 13.8659 49.9768 13.959 50.0113C14.0066 49.9848 13.0434 49.0282 13.4276 49.3119C12.9434 48.8534 12.7042 48.7157 12.1271 48.0887C12.6069 48.5432 13.3285 49.0931 13.5234 49.3936C14.5329 50.2335 14.5741 49.9334 14.1408 49.4961C14.191 49.6513 12.3585 47.9066 13.519 49.1658C12.8945 48.6998 11.8827 47.7241 11.1143 47.0674L11.1613 47.0856L10.2446 46.2347C10.3909 46.3377 10.6795 46.5842 10.7256 46.5567L9.37995 45.4515C10.1483 46.063 8.99226 44.9869 8.70309 44.65C8.51226 44.5765 7.98409 44.1476 8.41794 44.6298C8.90095 45.1766 8.75446 44.8947 9.23587 45.3512L8.46991 44.7864L8.42075 44.7218L7.93995 44.4008C7.02509 43.5074 8.51406 44.6228 7.26269 43.5543L7.31526 43.8C5.96516 42.4677 4.32589 40.6656 3.31472 39.7794C3.6382 39.9809 3.8477 40.0049 3.53666 39.5988C3.93519 40.0171 4.77439 40.8206 5.38041 41.3873C5.47733 41.5152 4.51593 40.783 3.88964 40.1363C4.03834 40.599 5.61921 41.6136 5.5281 41.8489C7.12081 43.4996 6.92095 42.8823 8.22409 44.3305C8.31821 44.277 8.65895 44.6798 8.79861 44.6872C8.50583 44.1689 6.92115 42.8825 6.05426 41.963C6.14877 42.0438 6.33901 42.206 6.38837 42.2261C5.76028 41.5772 5.47493 41.3341 4.99312 40.9223L5.04148 40.9861C4.17499 40.2905 4.60643 40.4581 4.17218 39.9755C3.98014 39.8114 3.35245 39.1636 3.40201 39.3175L2.62723 38.4324L2.58449 38.5523C2.10268 38.0964 2.05352 37.9424 1.5701 37.5741L1.47539 37.6268L2.63405 38.7957C2.00917 38.2396 2.39526 38.7031 1.7198 38.0811C2.12917 38.3975 2.00917 38.2617 1.78643 38.0296C1.67505 37.9133 1.538 37.7734 1.42863 37.6539C1.37405 37.5938 1.32609 37.5392 1.29198 37.4954C1.27722 37.4766 1.26342 37.457 1.25064 37.4369C1.23733 37.4209 1.2267 37.403 1.21913 37.3838C1.10495 37.2846 0.990571 37.1854 0.883213 37.0816L0.659266 36.8531L0.546289 36.7375C0.508563 36.6987 0.484482 36.6541 0.452776 36.6123L0.535653 36.7198L0.637794 36.8181L0.549499 36.7006L0.486691 36.5875C0.447159 36.5154 0.403012 36.454 0.380537 36.386L0.299868 36.2002C0.276991 36.1395 0.262543 36.0777 0.242676 36.0163C0.197325 35.894 0.185285 35.76 0.167024 35.6003C0.169633 35.5203 0.174449 35.4333 0.183279 35.3368C0.197326 35.2413 0.227627 35.1388 0.255319 35.0233L0.170034 35.3124C0.154181 35.4089 0.140536 35.5036 0.128495 35.5974C0.127091 35.691 0.131306 35.7836 0.135319 35.8758C0.143346 35.9675 0.16582 36.056 0.18087 36.1463C0.22562 36.3226 0.28582 36.4987 0.38776 36.6613C0.428095 36.7473 0.497527 36.8243 0.56435 36.905L0.773447 37.1531L1.16194 37.516C1.24943 37.5935 1.33452 37.6655 1.43204 37.7461L1.20629 37.5594C1.17739 37.5367 1.08609 37.4536 1.01144 37.3865L0.761607 37.1606C0.586422 36.9665 0.376924 36.7634 0.249097 36.5263C0.128495 36.2845 0.036991 36.0237 0.0129107 35.7712C-0.0480927 35.2624 0.122677 34.8455 0.199934 34.6672C0.308496 34.4033 0.533647 34.2047 0.715052 34.004C0.893046 33.817 1.11759 33.5785 1.19826 33.5202C1.42221 33.3258 1.64716 33.1402 1.89037 32.9137C1.44689 33.3708 1.58375 33.3481 1.59519 33.4262C1.60081 33.4653 1.57512 33.5297 1.42984 33.6918L1.01425 34.1369L0.646222 34.5207C0.586423 34.5967 0.538664 34.6839 0.479065 34.7724C0.437125 34.8693 0.385552 34.9702 0.349632 35.083C0.345418 35.0113 0.466423 34.724 0.553714 34.635C0.377928 34.7825 0.170436 35.2173 0.22261 35.7263C0.239667 35.9797 0.340403 36.2345 0.464015 36.4615C0.597059 36.6834 0.80134 36.8642 0.961474 37.0308L1.32669 37.3427C1.27733 37.2474 1.39552 37.3299 1.41218 37.3203C1.42241 37.3174 1.43425 37.3174 1.39111 37.2647C1.34535 37.2094 1.25485 37.1112 1.09452 36.9444L0.875587 36.6789C0.940604 36.7706 0.915119 36.7673 0.824818 36.6908C0.802544 36.6714 0.774651 36.6483 0.746156 36.6197L0.66368 36.515C0.634784 36.4753 0.598262 36.4338 0.569165 36.384C0.543479 36.3319 0.515587 36.2763 0.48649 36.2178C0.383948 35.9793 0.305486 35.6559 0.364282 35.319C0.421674 34.9824 0.574182 34.6531 0.849501 34.4149L0.839868 34.5403C0.833245 34.6004 0.838464 34.661 0.840872 34.662C0.834049 34.6589 0.919735 34.573 1.04676 34.444L1.50428 33.9801L2.00054 33.5146L1.91445 33.6083C2.35813 33.3262 2.94368 32.5865 3.66188 31.9789C4.10616 31.4687 6.0055 29.6994 5.07961 30.3556C5.75787 29.8429 6.19493 29.24 6.83887 28.5876L5.96837 29.3353C6.85653 28.3152 6.63078 28.6382 7.27513 27.7574C7.3859 27.7126 7.58577 27.5706 7.46175 27.7558C8.77413 26.5005 10.6729 24.7313 11.3429 23.8984C12.2688 23.0143 12.5519 23.0087 13.7895 21.7086C14.0449 21.4298 13.4674 21.8072 14.3565 21.014C14.423 20.9669 13.6203 21.8934 14.5634 20.9646C15.1514 20.2223 16.2069 19.4744 17.011 18.5465C17.5095 18.1282 18.3057 17.3356 18.209 17.5673C17.4547 18.2642 16.425 19.287 16.3002 19.474C16.3588 19.3339 15.7333 19.9406 16.244 19.3831C15.0741 20.4081 15.5642 20.1252 14.5263 21.0558C14.486 21.1502 15.1201 20.6356 15.3091 20.4034C15.4115 20.4933 13.3829 22.3547 14.3899 21.609C15.4679 20.5844 15.5814 20.0808 16.6113 19.2853C16.2992 19.7015 15.6677 20.214 15.2985 20.7689L16.0996 20.0715L16.5818 19.4696L16.5633 19.5153C17.9981 18.3028 17.7069 18.2164 18.8616 17.0069C18.0964 17.6148 18.8531 16.6874 18.2871 17.1538C19.0795 16.3645 19.6835 15.8065 19.7869 15.8956C18.3609 17.4266 19.8049 16.0781 18.5104 17.5163C18.7739 17.3295 18.3222 17.9746 19.1626 17.184C20.0275 16.2141 18.8016 17.3753 19.7016 16.4441C19.7654 16.3993 19.8314 16.3526 19.8131 16.3978C20.191 15.9347 20.3317 15.9326 20.7944 15.3773L20.6911 15.515C21.3902 14.9547 21.3236 14.7743 21.939 14.3051C21.6463 14.4477 22.2491 13.8904 22.5453 13.5171C21.9597 14.0295 21.5533 14.2208 20.4577 15.2897C20.3822 15.4736 20.4944 15.4267 20.0698 15.8903L20.7788 15.1924C20.6337 15.3505 20.5309 15.4786 20.4007 15.6265L19.6833 16.2616C20.5141 15.3802 20.0529 15.7069 20.3638 15.2916C21.1867 14.5455 21.0063 14.6408 21.5267 14.1743C21.5604 14.3043 23.2089 12.8279 24.1817 11.9934L23.7521 12.4016C23.138 13.0972 24.2814 12.0261 24.3292 12.0246L24.7733 11.5144C24.6876 11.6084 24.5806 11.7496 24.8 11.5609C25.4427 10.9103 25.3209 10.8665 25.9623 10.2167C26.058 10.2138 25.5728 10.8183 26.0058 10.4472C26.1872 10.3504 26.7437 10.0208 27.5758 9.13804C27.6202 9.06131 27.8365 8.83307 28.0912 8.57228C28.0572 8.60986 28.0131 8.65598 28.0002 8.67497L28.6308 8.16384C28.2158 8.7174 27.5941 9.0927 27.1767 9.64916L27.2098 9.7625C26.8235 10.1361 26.3311 10.6743 26.1288 10.945C26.7308 10.3883 26.8352 10.2494 27.4787 9.59801C27.6184 9.5548 27.1895 10.0371 27.1277 10.1066L27.1831 9.97021C26.3349 10.6689 26.0802 11.1744 25.0879 12.1056C24.9372 12.2453 25.0217 12.1528 25.0404 12.1073C24.3212 12.9424 23.4443 13.5963 22.7704 14.4324L22.9817 14.1518L20.5861 16.8078L20.6072 16.844C20.7384 16.7512 20.3529 17.1215 20.1348 17.309L20.1354 17.3077L18.8182 18.76C19.0004 18.6261 19.1745 18.4821 19.3396 18.3289C19.4658 18.1406 20.435 17.2592 20.2279 17.3084C20.7097 16.9341 21.3428 16.1924 21.6916 15.9126C21.0597 16.4259 22.0231 15.4501 22.0819 15.3102C22.3269 15.169 22.9404 14.4742 22.9305 14.6118C23.0626 14.5176 22.6008 14.8452 22.3932 15.1225C21.8455 15.7706 23.5633 14.0977 22.8627 14.8875C23.7818 13.9104 25.0743 12.7014 26.009 11.6809L25.4243 12.1929C25.8768 11.7748 26.9096 10.7489 27.02 10.7041C26.6987 11.0293 26.3134 11.3997 25.9059 11.8188C25.9602 11.9108 26.9168 10.8419 27.0097 10.8413L28.1082 9.54163L27.5688 10.0545C27.8606 9.685 29.0347 8.65733 29.8747 7.86643C29.5013 8.42483 28.6257 9.07739 27.7942 9.95994C27.199 10.6098 28.2844 9.67745 27.7089 10.2804C27.8885 10.1531 28.2772 9.77238 28.4445 9.56119L28.6996 9.35058C28.2575 9.95742 27.0366 11.0961 26.3178 11.9447C26.378 11.8674 26.4286 11.7983 26.4398 11.7665C25.7887 12.3255 25.1654 12.9302 24.5905 13.5329C24.937 13.2549 25.0426 13.1146 25.2132 12.929C25.2587 12.9294 24.7027 13.4857 24.5138 13.717C25.099 13.2045 24.6728 13.6695 25.041 13.3437C24.6998 13.7159 24.399 13.9937 23.9465 14.4118C23.6818 14.5996 24.088 14.1816 23.9951 14.1824C23.5669 14.6494 23.248 14.7441 22.634 15.4399C23.541 14.6015 22.5003 15.7625 22.2256 16.0876L22.3775 15.9471C22.1501 16.2709 21.9133 16.5038 21.6695 16.6439C22.0107 16.2717 22.3775 15.9471 22.2192 15.9938C21.9816 16.2279 21.7448 16.461 21.4895 16.7394L21.697 16.4625L20.5159 17.625C20.3756 17.8542 20.1286 18.2247 20.0349 18.4533C19.705 18.6872 19.3432 19.107 19.0887 19.3855L19.1947 19.244C18.6272 19.7119 17.4914 20.8754 17.4356 21.0122C17.0214 21.3381 19.819 18.1834 17.2022 20.7869C16.1929 21.7622 16.71 21.5264 16.181 22.1286C16.181 22.1286 16.1995 22.0837 16.1333 22.1302C15.6814 22.5473 15.6892 22.6405 15.3479 23.0125C15.6336 22.7767 16.0187 22.4069 16.1224 22.2683C16.0468 22.452 15.1969 23.1522 14.9034 23.5227C15.2545 23.0131 14.0154 24.3151 14.3112 23.942C13.3753 24.7358 12.5054 25.7106 12.1089 26.2192C11.4017 26.688 11.0776 27.2433 10.0584 28.1284C10.2105 27.9879 10.464 27.7113 10.6839 27.522C11.1655 26.9213 9.64403 28.4547 10.429 27.5727C10.2585 27.7587 10.4535 27.6212 10.6287 27.4307C10.9466 27.1085 11.2225 26.7824 11.1087 26.8306L10.2577 27.5324L10.5161 27.2501L9.23286 28.3231C9.2144 28.3681 9.34443 28.2768 9.41065 28.2295C7.9843 29.5337 6.44456 31.113 5.21646 32.2767C5.20141 32.4826 4.47399 33.2261 3.64262 34.0513L3.0091 34.6784L2.69546 34.9902L2.57706 35.1099L2.50984 35.1814C2.42214 35.2738 2.33887 35.3624 2.32181 35.4666C2.30014 35.5676 2.32723 35.6623 2.37499 35.7241C2.30515 35.6602 2.24315 35.5935 2.18696 35.5569C2.12937 35.5201 2.07178 35.5145 2.03124 35.5792C2.02562 35.493 2.02281 35.3488 2.11331 35.2064C2.15726 35.1353 2.22027 35.0652 2.28749 34.9877C2.32241 34.9487 2.35673 34.9121 2.39867 34.8706C2.45826 34.8117 2.52027 34.7532 2.58449 34.6951C2.69586 34.6492 3.34583 34.0912 2.98703 34.5079C4.33834 33.1596 2.71412 34.6035 3.04583 34.1408L2.66897 34.5184L2.33325 34.8637C2.19077 35.0276 2.03566 35.1576 1.96783 35.326C1.93683 35.4055 1.92369 35.4904 1.9293 35.5752C1.9349 35.66 1.95912 35.7426 2.00034 35.8177C2.07599 35.9642 2.21766 36.0521 2.33084 36.1401L2.47853 36.2511L2.71051 36.4459L3.17064 36.8411L3.17144 36.8872L3.94121 37.545C3.36148 36.9597 3.50315 36.8795 4.22797 37.6555L4.12944 37.571C4.51813 38.0373 5.48055 38.8592 6.15399 39.5238L6.68075 39.9069C7.3552 40.5726 7.26369 40.7177 7.41279 41.0016C8.47312 42.0416 9.18951 42.5419 10.0076 43.2179C10.298 43.6004 11.8865 45.1582 10.9743 44.401C11.9848 45.2868 12.0731 44.8259 13.5699 46.5739L13.0899 46.2087C14.6814 47.7248 17.0373 49.804 17.7121 50.5591C16.946 50.1725 19.5007 52.6454 19.6024 53.0899C19.5651 52.9746 20.1727 53.5351 20.2811 53.5975C20.3901 53.7434 20.5865 53.9724 20.8534 54.1586C20.2729 53.5285 21.4729 54.3973 20.2219 53.3291C20.9413 53.7864 21.8058 54.4357 23.1063 55.7032L23.0118 55.7565L22.0006 54.7362C22.05 54.8902 21.522 54.3725 21.2782 54.1865C23.1595 56.0839 20.8514 54.1125 22.8272 56.0014C23.0656 56.1378 22.9225 56.0382 23.4527 56.5133C23.2099 56.2837 23.1152 56.2916 23.5014 56.6666L23.9331 56.968C24.495 57.7514 22.7154 55.9491 23.2137 56.5993C22.3958 55.9231 21.0495 54.6839 21.199 55.0127C22.404 56.2432 22.4931 55.9169 23.7461 57.2104L23.8434 57.3831C24.327 57.7965 24.4665 57.8041 24.7558 58.0067C24.7552 58.0509 24.8538 58.1796 25.1401 58.4687C26.0062 59.1191 26.536 59.5944 27.3511 60.1787C25.3821 58.4297 25.8083 58.5479 23.787 56.7318C24.1239 56.9971 25.52 58.3014 25.7078 58.283L25.6145 58.3379C26.2877 58.9127 26.9604 59.4878 27.7326 60.2806L27.204 59.8519C28.3119 60.821 28.8459 61.6563 29.8035 62.3406C29.5159 62.0502 29.2747 61.8216 29.0817 61.6573C29.6586 62.1498 30.333 62.8157 30.9112 63.3981L32.2568 64.4589C32.2091 64.4845 32.9813 65.2345 32.5484 64.9309C33.3716 65.8357 33.8979 66.1285 34.4249 66.6015C35.2466 67.5485 33.609 65.8821 33.4173 65.8966C34.6241 67.1287 35.9714 68.3693 36.7394 68.9806C36.5012 68.7215 36.3912 68.5901 36.4221 68.5851C36.4362 68.6442 36.9427 69.1214 37.2206 69.3913L37.461 69.5293L37.471 69.5405L37.4734 69.5434L37.4478 69.5682H37.4474L37.4459 69.5692L37.4417 69.5731C37.4379 69.5771 37.4344 69.5816 37.4313 69.5862C37.4309 69.5872 37.4331 69.5824 37.4315 69.5851C37.4273 69.5932 37.4331 69.5802 37.4301 69.5876C37.4271 69.5979 37.4221 69.6075 37.4152 69.6159C37.413 69.6178 37.4034 69.6306 37.3998 69.6296C37.3968 69.6296 37.3938 69.6302 37.391 69.6314L37.3839 69.6341C37.3781 69.6312 37.3853 69.6451 37.3667 69.6285C37.3757 69.6378 37.3781 69.6393 37.3779 69.638L37.3809 69.6384L37.3855 69.6403C37.3892 69.6405 37.3872 69.6496 37.3926 69.6465C37.4028 69.6395 37.4024 69.6527 37.4124 69.6418C37.4237 69.6461 37.4363 69.6176 37.4405 69.6176C37.4407 69.6118 37.4407 69.6085 37.4417 69.6081C37.4393 69.6081 37.4498 69.6085 37.4375 69.6099C37.4163 69.6132 37.3967 69.623 37.3817 69.638L37.3709 69.6502C37.3697 69.6523 37.3587 69.6653 37.3721 69.6535L37.4716 69.5748L37.522 69.5366L37.5224 69.5364L37.4494 69.6002L37.4492 69.6L37.449 69.5996L37.4488 69.5992L37.4486 69.5982V69.5973C37.4494 69.5965 37.4526 69.5979 37.4588 69.6002C37.459 69.5982 37.474 69.6043 37.4857 69.6037C37.4937 69.6106 37.4851 69.6105 37.4933 69.6198C37.4963 69.6269 37.4875 69.6275 37.4917 69.6387L37.4921 69.6407L37.4923 69.6416L37.4925 69.642C37.523 69.6151 37.4239 69.7019 37.5613 69.582L37.5605 69.5826L37.5581 69.5847L37.5381 69.6017L37.4983 69.6358L37.4177 69.7038L37.4086 69.7114L37.4112 69.7067L37.4175 69.698C37.4237 69.6904 37.4315 69.6841 37.4403 69.6795C37.4491 69.6748 37.4588 69.6719 37.4688 69.6709C37.4563 69.6768 37.4425 69.6797 37.4286 69.6794C37.4147 69.679 37.4011 69.6754 37.389 69.6688C37.3831 69.6668 37.3751 69.6672 37.3733 69.6581C37.3721 69.6568 37.3707 69.6558 37.369 69.6551C37.3674 69.6543 37.3657 69.6539 37.3639 69.6539C37.3653 69.6579 37.353 69.6459 37.341 69.6341L37.3075 69.6015L37.0538 69.3574C36.8945 69.2063 36.7566 69.0798 36.6485 68.9932C36.8687 69.1931 37.0846 69.3973 37.2961 69.6058L37.3498 69.6593C37.3575 69.6649 37.3575 69.6624 37.3607 69.6651C37.3657 69.6676 37.3661 69.6765 37.3699 69.6808C37.3755 69.6816 37.3793 69.6847 37.3823 69.6905C37.3837 69.6998 37.3912 69.6967 37.3952 69.7004C37.4002 69.7019 37.403 69.7128 37.409 69.7133C37.4205 69.711 37.4313 69.7319 37.4441 69.7279C37.4516 69.73 37.4586 69.7334 37.4648 69.7379C37.4712 69.736 37.478 69.736 37.4845 69.7377C37.5162 69.7412 37.4736 69.7486 37.4736 69.7753L37.4724 69.7852C37.4718 69.7893 37.4865 69.7767 37.4929 69.7732L37.5429 69.7395L37.5932 69.7056L37.6187 69.6883L37.6314 69.6796L37.6378 69.6754L37.6394 69.6742L37.58 69.7261L37.5802 69.7259L37.5808 69.7252C37.5866 69.7183 37.5939 69.7126 37.6021 69.7085C37.6129 69.7048 37.6223 69.6996 37.6251 69.6905C37.6629 69.6676 37.6715 69.6196 37.6797 69.568C37.6866 69.5448 37.6705 69.5049 37.6721 69.494C37.6725 69.4981 37.6753 69.5016 37.6799 69.5035C37.6827 69.5047 37.6857 69.5053 37.6888 69.5054H37.6942C37.6966 69.5056 37.6862 69.495 37.6825 69.4903L37.6199 69.4161L37.5878 69.3783L37.5718 69.359L37.5676 69.3543L37.6165 69.4068L37.6153 69.4057L37.6131 69.4033L37.6039 69.3946C37.3807 69.1809 37.1544 68.9702 36.9252 68.7626C36.9238 68.7163 37.3091 69.0009 36.9228 68.6268C36.0084 67.7785 36.5885 68.4973 36.2544 68.2792C36.6146 68.5979 36.8676 68.8416 37.0729 69.0617C37.1754 69.1718 37.2661 69.2758 37.3526 69.3805L37.4797 69.538L37.4799 69.5384C37.5363 69.5988 37.403 69.4564 37.4171 69.4711L37.4175 69.4719L37.4183 69.4733L37.4201 69.476L37.4235 69.4812L37.4303 69.4921L37.4437 69.5134L37.4706 69.5568C37.4865 69.5839 37.5116 69.6194 37.5202 69.6407C37.5298 69.6494 37.4708 69.6029 37.4211 69.5645L37.3829 69.5353L37.3653 69.5217L37.3611 69.5184L37.3601 69.5176L37.3595 69.5173L37.3593 69.5171L37.3591 69.5169L37.4273 69.5897L37.4251 69.5884L37.4169 69.5833L37.3819 69.5616C37.3745 69.5149 36.9423 69.0953 36.8343 68.9529L36.6423 68.9228C36.7827 68.8864 36.1573 68.1517 35.5789 67.6576C36.0651 68.2517 35.9197 68.1048 35.968 68.3474C35.1055 67.7002 35.1977 67.4214 34.237 66.6902C34.33 66.7249 35.1013 67.4284 34.4752 66.7815C33.9429 66.2599 33.9449 66.3959 33.563 66.0698C34.0424 66.3893 33.9934 66.2357 34.5204 66.5747C35.4828 67.4858 34.9039 66.9469 35.8677 67.8149L35.1421 66.9932C35.9614 67.7611 35.8141 67.4782 35.9088 67.5148C34.6055 66.1107 34.7572 66.6203 33.8895 65.7449C33.4109 65.381 34.7098 66.5575 33.9874 65.963C33.1687 65.1516 33.7498 65.827 32.7866 64.959L32.9764 65.0766C32.7358 64.7591 32.4001 64.5397 32.0632 64.2291C31.6785 63.9011 32.2157 64.874 30.7213 63.4408C30.8148 63.4913 30.8548 63.5045 30.8634 63.4962L32.9393 64.2975C31.2729 62.6906 29.6268 61.0641 28.0014 59.4184C27.7117 58.9036 29.3491 60.5259 29.2972 60.3696L30.0694 61.1634C29.973 61.17 28.3835 59.5663 29.0118 60.3494C30.4564 61.6726 31.0358 62.3466 32.4776 63.5332C32.1848 63.0147 30.6972 61.856 29.9231 60.9262C30.2799 61.286 30.6011 61.5705 30.9176 61.8423L28.3524 59.2665L28.1142 59.0935C28.7261 59.7108 29.1483 60.1386 29.1996 60.1965C28.3811 59.3855 27.6142 58.7756 27.4697 58.8085L27.614 58.9538L27.2863 58.6915C27.0991 58.4979 26.9114 58.3048 26.723 58.1123ZM34.1345 5.98683C34.0926 6.04379 34.0629 6.09184 34.046 6.13214C34.0635 6.0901 34.0211 6.1149 34.1345 5.98683ZM33.8313 67.8136L35.4647 69.439L36.2716 70.2431L36.4717 70.4417C36.4994 70.4721 36.5506 70.5139 36.5981 70.5521C36.6473 70.5885 36.6906 70.6333 36.7462 70.6608C36.9573 70.792 37.2057 70.8505 37.4516 70.8565C37.2302 70.8359 37.0165 70.7813 36.8445 70.6683C36.7534 70.6207 36.68 70.5535 36.6104 70.4866C36.5313 70.4176 36.5006 70.3665 36.4468 70.308L35.9209 69.6864C35.612 69.3163 35.3967 69.0445 35.3359 68.9325C35.2749 68.8207 35.3684 68.8686 35.677 69.1381C35.8314 69.2727 36.0395 69.4628 36.3088 69.7159C36.4428 69.843 36.5927 69.9854 36.7599 70.1435C36.8018 70.1871 36.8433 70.2163 36.8855 70.2495L36.9493 70.2996L37.0243 70.3368L37.1006 70.376L37.1855 70.3998C37.2144 70.4074 37.2427 70.418 37.2726 70.4238L37.3649 70.432C37.3659 70.4442 37.6237 70.4089 37.6205 70.4002C37.4945 70.4139 37.3404 70.4211 37.1855 70.3638C37.1048 70.3461 37.033 70.2965 36.9571 70.2545L36.8532 70.1702C36.8169 70.1408 36.7765 70.0968 36.7376 70.0602C36.4036 69.7343 36.0656 69.4125 35.7234 69.0947C35.2144 68.7072 34.7022 68.3236 34.1871 67.9438L33.4316 67.3918C33.2341 67.2503 33.1089 67.1643 33.1087 67.1738C33.2538 67.4094 33.5913 67.6311 33.9298 67.987L33.8313 67.8136ZM33.3405 66.7691C32.7334 66.1448 32.8368 66.3205 32.7045 66.2605L33.3766 66.8836C33.3021 66.7946 33.2732 66.7427 33.3405 66.7691ZM32.7069 66.3306C32.7766 66.3994 32.835 66.4591 32.8617 66.4941L32.7069 66.3306ZM32.24 63.172L32.3064 63.2321L31.8633 62.7886C31.9177 62.8519 32.0279 62.9666 32.24 63.172ZM33.4259 64.4837L33.6393 64.5653L33.2237 64.1495C33.2419 64.2237 33.2662 64.2962 33.4259 64.4837ZM37.3035 68.6368C37.3872 68.6804 37.5043 68.7649 37.6348 68.8668L37.8387 69.0296L37.891 69.0722L37.9173 69.0935L37.9304 69.1044L37.9308 69.1048C37.9219 69.0951 37.9514 69.1265 37.9109 69.0834L37.9117 69.0842L37.9131 69.0858L37.9161 69.0889L37.9221 69.0947L38.0173 69.1896C38.0568 69.2249 38.0628 69.2437 38.0767 69.2636C38.0897 69.2846 38.1078 69.3006 38.1218 69.3241C38.1417 69.378 38.1782 69.4254 38.1892 69.4729C38.2023 69.5196 38.2207 69.5603 38.2338 69.592C38.2422 69.6238 38.254 69.6463 38.2691 69.6552C38.2815 69.6883 38.2982 69.6537 38.3118 69.5773L38.3084 69.4363C38.3016 69.3828 38.2813 69.3254 38.2677 69.2642C38.2538 69.2338 38.2368 69.2057 38.2219 69.1757C38.2055 69.146 38.1967 69.1154 38.166 69.084L38.0873 68.9893L38.0674 68.9654C38.0624 68.9605 38.0573 68.9555 38.0524 68.9505L38.0074 68.9063L37.6362 68.5402C37.6143 68.544 37.5509 68.5062 37.454 68.4351C37.697 68.6913 37.8447 68.8767 37.6868 68.8302C37.1528 68.0835 37.0159 68.347 36.3401 67.6351C36.0523 67.4786 37.0641 68.4545 37.3035 68.6368ZM16.8188 20.2651C16.8465 20.2533 16.9358 20.206 17.0574 20.1365L16.6036 20.6598C15.6964 21.4983 14.8568 22.0612 14.1679 22.9395C13.7662 23.2739 13.5073 23.4107 13.2677 23.5488C13.4543 23.3754 13.6303 23.2146 13.7804 23.084C15.8596 20.7644 15.1191 22.1203 16.8188 20.2651ZM6.45299 29.9702C6.53908 29.8764 6.55733 29.8307 6.55733 29.8307C4.73727 31.9045 3.15118 33.5275 2.07539 34.554C2.3477 34.4167 3.35746 33.5388 3.83987 33.1249L3.51017 33.5862L3.19994 33.7734L2.56623 34.5151C2.81205 34.3739 3.3677 33.8174 3.78429 33.489C3.80295 33.4436 4.9283 32.1904 5.22128 31.8194L4.20208 32.7047C4.48422 32.4722 5.75125 31.2159 6.24148 30.7059C6.21439 30.6604 5.27968 31.4524 5.24978 31.6369C5.09044 31.6846 6.10142 30.7073 5.40268 31.268C6.10202 30.4792 7.3572 29.362 7.94416 28.848L8.13139 28.8457C8.78135 28.2877 8.4348 28.3375 9.21781 27.6849C8.33908 28.5682 9.47085 27.6365 8.7645 28.3318C9.02717 28.1456 8.86684 28.4217 9.5748 27.725C10.0474 27.0321 10.405 27.0717 10.8595 26.4241C11.2735 26.0983 10.5288 26.8859 11.2847 26.1876C12.0685 25.3066 11.9734 25.3093 11.9369 25.1723C11.1187 25.914 11.1617 26.1448 10.4913 26.75L11.6289 25.3569C11.3696 25.5656 11.1912 25.7334 11.0497 25.8818C11.3002 25.623 11.4978 25.3885 11.6551 25.1764L11.9078 24.8451C11.1757 25.5503 10.5242 26.1754 10.3715 26.2496L10.429 26.1105C10.1305 26.3222 9.73955 26.7597 9.57661 26.9781C8.92664 27.615 8.33286 28.3045 8.13379 28.3886L8.34289 28.1104C7.54945 28.8999 7.46517 28.9918 6.45299 29.9702ZM21.5855 56.0458C21.2562 55.4219 20.8582 54.7674 18.5541 52.5962L18.7442 52.7585C17.6965 51.5548 16.3759 50.7259 15.0906 49.2716C15.8277 49.8679 15.7857 49.8379 16.6701 50.4281L15.8987 49.7697C16.1863 49.8809 15.4169 49.2241 14.8877 48.7054L15.4608 49.0608C15.7514 49.3981 16.5703 50.2095 16.5693 50.1634C16.3763 49.9989 17.5351 51.3461 18.2586 51.987C18.2566 51.8508 16.7638 50.4639 17.5313 50.9857C16.9073 50.475 16.905 50.339 16.2782 49.7807C16.9036 50.2928 16.5159 49.8272 16.997 50.1938L15.9852 49.2626C15.9826 49.2154 17.4755 50.6023 16.7513 49.7381C16.3191 49.3911 15.3077 48.3262 15.214 48.3803L15.2126 48.3346C14.4884 47.6039 14.781 48.1222 13.9143 47.203C13.8659 47.229 14.0134 47.4216 14.3469 47.7287C14.6389 47.9785 14.7326 47.9695 15.3101 48.507C15.506 48.8091 14.6333 47.8395 14.9281 48.3154C15.0743 48.5518 16.4678 49.7199 15.9418 49.4268L15.2188 48.6975C15.1249 48.7515 14.5939 48.2305 14.5484 48.3034C14.0688 47.8936 13.7266 47.4003 13.1997 47.0172C12.9597 46.8789 13.2043 47.2891 12.4797 46.5137C11.9939 45.8305 10.2135 44.1532 9.53908 43.5324L8.9148 43.022C8.91781 43.1139 10.0225 44.0793 9.59246 43.7796L8.6756 42.929L8.77373 42.9682C8.48216 42.6743 8.14664 42.4102 7.85827 42.1637C8.19219 42.3819 8.81848 43.0284 8.76771 42.8289C8.36115 42.4065 8.32584 42.3164 7.92249 41.956C8.01279 42.0325 8.09346 42.0955 8.09366 42.0746C7.27312 41.217 7.18142 41.3622 6.94182 41.18C5.98121 40.4488 7.71339 42.1067 7.52316 42.0785L4.97245 39.6986C5.21205 39.8809 5.45285 40.065 5.40409 39.9559C4.82496 39.3272 5.45065 39.884 4.58335 39.0538C4.5382 39.2161 3.4295 38.068 2.75766 37.5386C2.51626 37.2211 2.46649 37.156 3.09118 37.7566C3.09218 37.6239 2.21826 36.8314 1.94154 36.5522C1.90522 36.5237 1.86962 36.4944 1.83479 36.4643C1.75311 36.3937 1.64515 36.3129 1.55305 36.2168C1.50689 36.1688 1.45773 36.1223 1.42803 36.0667C1.39412 36.0138 1.35719 35.9648 1.34094 35.914C1.37184 36.0744 1.38509 36.1225 1.31244 36.0529C1.29679 36.0345 1.27111 36.0105 1.25184 35.9741C1.23378 35.9372 1.21311 35.8913 1.18963 35.8361C1.16535 35.7811 1.16114 35.7121 1.14509 35.6354C1.13828 35.5481 1.14178 35.4603 1.15552 35.3738L1.1483 35.3273C1.0881 35.5288 1.07886 35.7706 1.16335 36C1.24241 36.2343 1.43224 36.4162 1.61164 36.6092L2.15826 37.1672L2.66134 37.6684C2.98322 37.9823 3.27098 38.2462 3.48208 38.4039L3.29064 38.2855C4.25606 39.3332 5.6461 40.3196 5.98804 40.9024C5.89252 40.9103 6.18208 41.1128 6.08937 41.1676L6.90269 41.8401L6.71185 41.7214L8.01279 42.9449L7.96483 42.9256L9.6035 44.1828C9.63761 44.1526 9.60791 44.1047 9.83547 44.2778C10.0149 44.4237 10.1856 44.5794 10.3468 44.7439C10.348 44.7447 10.348 44.7447 10.3482 44.7445L10.3478 44.7449C10.6532 45.0582 10.8163 45.3062 11.1852 45.6993L9.98316 44.5542C9.83045 44.5139 9.8744 44.6674 10.4208 45.2698C10.1794 45.0406 10.0361 44.9857 10.3259 45.2779C10.3729 45.2953 11.1436 45.9993 10.9022 45.6805C12.0567 46.7563 13.7475 48.6698 15.575 50.2308C14.2745 49.0972 16.4923 51.2601 15.096 49.9557C15.9661 50.9671 16.0083 50.6679 16.9719 51.6249C17.0232 51.7361 16.4439 51.107 16.1565 50.9508C17.7458 52.5539 19.0414 53.4597 20.5865 55.0036L20.5845 55.1353C20.8915 55.4141 21.2317 55.7239 21.5855 56.0458ZM24.7813 58.965L25.7263 59.8315L25.638 59.7422L26.6028 60.566C26.0712 60.0007 25.7792 59.5721 26.5964 60.2927C26.5019 60.2566 26.6955 60.5112 26.4069 60.2647C26.8893 60.8106 27.9984 61.9591 27.8032 61.5689C26.6979 60.6924 27.7017 61.214 26.8374 60.5209C27.33 60.865 27.7197 61.3007 28.151 61.6584C27.6768 61.3104 28.1192 61.877 28.7188 62.5084C29.0084 62.7556 29.731 63.4842 30.2118 63.8953C30.1141 63.6775 30.5453 64.0234 29.8227 63.2945C30.2333 63.6444 30.6201 64.0196 30.9806 64.4177C30.7833 64.2483 30.4496 63.9414 30.449 63.9856C30.6936 64.3351 31.0512 64.6755 31.2222 64.8889L31.6998 65.3302C31.6597 65.2804 31.6273 65.2353 31.6081 65.1991L32.1836 65.6461C31.462 65.0073 31.8936 65.3089 31.9398 65.2814C31.8465 65.3357 32.3754 65.7207 32.6144 65.9468L32.1792 65.374C32.4675 65.5757 32.9997 66.2765 32.9481 66.0756C31.8886 64.9918 31.4556 64.6 30.4454 63.67L30.7843 64.116C29.6277 63.0831 30.2032 63.3514 28.951 62.1484C28.3757 61.701 27.0687 60.3384 26.9307 60.4219C27.1215 60.5401 26.2528 59.5746 25.774 59.2103C25.1983 58.8527 23.7537 57.4848 24.1402 57.9482C24.5255 58.3228 25.1022 58.7705 25.346 59.1352L24.5748 58.4318L25.0109 58.9608C24.7767 58.6961 24.7466 58.7727 24.7813 58.965ZM36.1572 65.5374L36.1298 65.5081L36.1615 65.5395L36.1572 65.5374Z" fill="#202020"/>
<path d="M27.2302 9.81118C27.4178 9.57783 27.9484 9.06545 27.7909 9.11344C27.8636 9.15949 26.8597 10.0447 27.2302 9.81118ZM27.9181 9.25101C27.9409 9.20068 27.8924 9.2036 28.1266 8.96985L27.4913 9.62252L27.9181 9.25101ZM28.9861 9.00405C29.2772 8.63157 29.4644 8.3984 29.995 7.88622C30.3384 7.83512 29.1737 8.77127 29.0711 9.1385C30.0497 8.20565 30.2187 7.79043 31 7C30.5461 7.32604 28.9045 8.86706 28.9861 9.00405ZM28.7414 9.60483L29.2453 9.04641L29.1838 9.08993L28.6796 9.64875L28.7414 9.60483ZM15.853 19.7624C15.7591 19.7652 15.4694 20.1371 15.3012 20.3238C15.45 20.1835 15.6661 19.9952 15.853 19.7624ZM22.4742 19.2234L26.524 15.166L22.4742 19.2234ZM2.56629 33.3754C3.62257 32.2554 4.03233 31.6997 5.1324 30.5819C3.56788 31.9361 3.33051 32.6298 2 33.7502L2.56629 33.3754ZM2.59086 32.6393C2.85874 32.5447 1.84327 33.5695 2.06559 33.4746C2.78543 32.7277 2.32892 33.0563 3.00854 32.4042L2.59086 32.6393ZM8.9888 29.1442L8.70011 29.5149L8.95215 29.2357L8.9888 29.1442ZM2.49575 39.4594L2.35487 39.3591L2.87895 39.9263L2.49575 39.4594ZM2.2138 39.2593L2.35487 39.3591L2.2138 39.2593ZM8.7445 29.7446L9.25827 29.2767L9.46375 28.9979L8.7445 29.7446ZM3.91225 33.5813L4.32795 33.1198C4.24533 33.2112 3.60395 33.7712 3.91225 33.5813ZM5.82529 42.7958L6.39733 43.2922L6.35076 43.23L5.78052 42.7352L5.82529 42.7958ZM2.21082 36.6278C2.18289 36.5569 2.23282 36.5876 2.29563 36.64L2.39232 36.7255L2.52269 36.845C2.55975 36.8773 2.57758 36.8895 2.56292 36.8652C2.54791 36.8428 2.5317 36.8213 2.51437 36.8005C2.49337 36.7728 2.43987 36.7123 2.42957 36.6929L2.33724 36.6123C2.1605 36.4665 2.20528 36.5685 2.21082 36.6278ZM8.13442 43.313C8.20714 43.3843 8.286 43.4572 8.36724 43.5225L8.13442 43.313ZM8.13442 43.313C7.89963 43.0828 7.68999 42.8278 7.50988 42.6885C7.77282 43.005 7.89071 43.0985 8.13442 43.313ZM10.84 45.9361L10.6318 45.7226C10.8818 45.9041 10.7738 45.8077 10.5535 45.6429C10.3257 45.4237 10.3175 45.4568 10.2765 45.4445L10.1121 45.3336L10.3209 45.4915C10.6698 45.8349 10.8864 46.041 10.84 45.9361ZM19.7229 56.8253C18.961 56.03 18.7694 55.819 18.8635 55.8106C18.1334 55.0625 18.1611 55.2627 17.6905 54.8412C18.5449 55.6596 18.6939 55.8522 19.7229 56.8253ZM17.6903 54.8412L17.3915 54.5562C17.4884 54.654 17.588 54.749 17.6903 54.8412ZM8.25489 42.3044L8.82197 42.7068L8.63175 42.5416L8.25489 42.3044ZM20.8641 57.9948C20.7215 57.8485 20.4855 57.6215 20.3882 57.4917C20.2949 57.5009 21.0064 58.1405 20.8641 57.9948ZM18.8344 54.0372C18.7858 53.9282 18.2641 53.4533 18.0712 53.2406C18.3585 53.5351 18.5035 53.8623 18.8344 54.0372ZM23.331 60C23.1885 59.8537 22.9987 59.6001 23.1382 59.6538C22.9012 59.4707 22.5242 59.2782 23.331 60ZM20.2622 55.4556L20.1673 55.3284L19.5964 54.8329L20.2622 55.4556ZM19.0983 52.8325C18.4322 52.299 19.9111 53.9185 18.8172 52.947C20.0977 54.3281 18.8005 52.761 19.7825 53.7436C19.2222 53.1535 19.0147 52.7987 19.0983 52.8325Z" fill="#202020"/>
<path d="M19.9167 53.5376C20 53.623 20.0918 53.7141 20.1934 53.8113L19.9167 53.5376ZM28.2531 62.2342C28.1785 62.1725 28.1019 62.1129 28.0234 62.0557C28.0996 62.1183 28.1737 62.1767 28.2531 62.2342ZM23.2159 56.5822L22.1919 55.7858C22.8756 56.3181 24.4347 57.8105 24.4307 57.6284C23.9437 57.1283 23.3099 56.5718 23.0195 56.372L23.2159 56.5822ZM32.1938 68.3678L31.755 68.0203L32.2458 68.5085C32.116 68.3584 32.4447 68.5407 32.1938 68.3678ZM32.3409 68.603L32.2458 68.5087C32.2649 68.5314 32.2948 68.5614 32.3409 68.603ZM26.4488 60.6016C26.1551 60.309 25.9122 60.0823 25.6215 59.8373C25.7173 59.9624 26.4495 60.6914 26.4488 60.6016ZM35.1595 70.9336L34.4802 70.317L35.2106 71L35.1595 70.9336ZM39 68.0576L38.9031 67.9318L38.3197 67.4399L38.4184 67.5674L39 68.0576ZM35.8885 68.4236C35.4489 67.9858 35.0136 67.7313 35.1137 67.8604L35.9893 68.6871C35.8412 68.4061 35.7453 68.4588 35.2584 67.9597L35.8885 68.4236ZM15.8933 46.3059C16.1373 46.4447 17.0622 47.3802 17.0656 47.4721C16.9172 47.3695 16.3809 46.8954 16.676 47.2331L17.5509 47.8369C18.4793 48.8645 16.6297 47.2612 16.0916 46.8298C17.0984 47.8183 17.4805 48.0316 18.5675 49.0679C18.3425 48.84 18.1333 48.5982 17.9414 48.3443C17.9893 48.2282 18.965 49.2293 19.6959 49.9129C19.2717 49.4385 19.5695 49.663 19.9388 49.9512C20.002 50.0063 20.0469 50.04 20.0812 50.0617L20.2072 50.159L20.1203 50.0764C20.1359 50.0731 20.1284 50.0439 20.0815 49.9692C19.4489 49.4138 19.0552 48.9032 18.6648 48.5295C18.9134 49.0294 17.3005 47.2906 16.7658 46.8623L16.1842 46.3342L15.9715 46.1319C15.9439 46.0768 16.0233 46.1163 16.3748 46.399C16.0772 46.1673 15.185 45.299 15.2238 45.4207L13.1638 43.462C13.1092 43.4017 13.0582 43.3387 13.0108 43.2731C12.9308 43.2133 12.9117 43.2089 12.9141 43.2246C10.3927 40.8277 7.87137 38.4311 5.3557 36.0344L5.38536 36C5.36768 36.011 5.34676 36.0223 5.32319 36.0344C5.32929 36.0672 5.33721 36.1119 5.37439 36.1682C5.26042 36.1471 5.27993 36.1734 5.32787 36.2256L5.34493 36.2446C5.35306 36.2533 5.34615 36.2479 5.38759 36.2887C5.44813 36.3493 5.5048 36.407 5.54909 36.4556C5.63786 36.5527 5.67828 36.6129 5.60637 36.5858C5.52166 36.52 5.43045 36.4434 5.33762 36.3609C5.27607 36.3054 5.28236 36.3133 5.26611 36.299L5.23016 36.2655C5.18404 36.2195 5.1489 36.1713 5.13407 36.137C5.08633 36.133 5.06907 36.1562 5.05891 36.1879C5.04794 36.2187 5.04428 36.2586 5 36.2663C5.03814 36.3149 5.08004 36.3607 5.12534 36.4033C5.13671 36.4134 5.28988 36.5525 5.38129 36.6288C5.58524 36.8014 5.76746 36.9369 5.94968 37.0708C6.3139 37.3388 6.67793 37.6009 7.21483 38.1427C7.11854 38.1511 6.73095 37.8691 7.46164 38.5517L7.26642 38.3872C8.48383 39.4351 8.05054 39.3602 8.92383 39.9182L8.82897 39.972C9.41177 40.4184 10.4348 41.3922 11.0214 41.9312L10.9725 41.9125C12.6758 43.3699 11.8984 42.7595 13.75 44.4544L12.8261 43.7426C13.4158 44.3739 13.6531 44.4169 14.0929 44.8546C14.0462 44.8378 14.0949 44.9899 13.6566 44.5986L15.9941 46.5689C16.5767 47.0158 15.9429 46.4147 15.8933 46.3059ZM18.5673 49.0679C18.6977 49.2011 18.832 49.3308 18.9699 49.4569L18.5673 49.0679Z" fill="#202020"/>
<path d="M6.0638 36L6 36.061C6.02662 36.0463 6.04863 36.0252 6.0638 36ZM22.5621 51.7477C22.218 51.3525 22.904 51.9649 23 52L21.6259 50.7169C21.6028 50.7501 21.4341 50.6536 21.4349 50.7045L22.5621 51.7477Z" fill="#202020"/>
<path d="M20.6665 50.3759C20.6016 50.3511 20.4436 50.2303 20.2692 50.0919L20.9975 50.8064C21.0142 50.781 20.9521 50.6818 20.6665 50.3759ZM19.295 52L19.0573 51.7713L18.6797 51.4433L19.295 52ZM15.7418 48.2635C15.9797 48.5818 16.5452 49.0733 16.7344 49.2377C16.1187 48.6355 16.4012 48.8811 15.7418 48.2635ZM16.0402 49.4616L15.424 48.9037L15.4707 48.9664L16.0402 49.4616ZM10 31.289L10.2844 31C10.1875 31.0942 10.0926 31.1906 10 31.289Z" fill="#202020"/>
<path d="M5 35.86C5.20577 35.7188 5.21135 35.7481 5.19101 35.7984C5.16748 35.8519 5.10687 35.9379 5.11285 35.9764C5.17008 36.0031 5.21235 36.0071 5.24664 35.9886C5.24042 35.9851 5.23455 35.981 5.2291 35.9764C5.24395 35.9359 5.26195 35.8966 5.28293 35.8588L5.31324 35.8854L5.37844 35.8118L5.79775 35.389C5.5543 35.5324 5.40535 35.6734 5.39598 35.5807C6.68064 34.3534 5.85577 35.2478 6.84853 34.3969L8.25262 32.9936L8.15372 33.1216C8.27156 33.003 8.31782 32.945 8.35012 32.8963L13.0814 28.1666C13.9071 27.2717 12.5094 28.5479 13.0728 27.8427C12.0685 28.8337 10.5213 30.2517 10.5386 30.4372C10.5581 30.39 10.5962 30.2964 10.3805 30.4853L9.88421 31.1416L10.465 30.6218C9.96516 31.281 8.06001 33.123 7.66662 33.4078C8.71061 32.3215 8.07078 32.7523 9.62042 31.3327C9.52731 31.3732 9.20789 31.598 9.5299 31.2519C8.66934 32.1301 7.8351 32.9446 7.00006 33.7741C6.57792 34.1925 6.15912 34.6142 5.74372 35.0392L5.42729 35.366L5.26838 35.5316L5.19161 35.6122L5.16808 35.6407C5.10607 35.7162 5.04865 35.7904 5 35.86ZM21.9813 19.0141L21.9767 19.0369C22.0034 19.001 22.01 18.9872 21.9813 19.0141ZM21.3809 19.5813L20.6282 20.5224L21.9508 19.2021L21.9767 19.0371C21.877 19.1709 21.4463 19.6662 21.2378 19.8174L21.3809 19.5813ZM19.6981 21.5598C20.3553 20.8524 20.2349 20.8072 19.8221 21.1395C20.4145 20.4792 20.2444 20.8994 20.5912 20.3842C20.517 20.3392 19.7745 21.1409 19.6066 21.3281L19.6981 21.5598ZM14.584 26.5173L14.7429 26.2928L14.2576 26.7531L14.584 26.5173ZM14.7429 26.2928L15.2248 25.8359C15.1666 25.8428 15.1092 25.8501 15.0147 25.9089L14.7429 26.2928ZM16.4887 24.6364C16.726 24.4163 16.9606 24.1936 17.1926 23.9681L16.4887 24.6364ZM15.9271 25.1484L15.954 25.1433L16.4887 24.6364L15.9271 25.1484Z" fill="#202020"/>
<path d="M15.0734 25.7264C15.2046 25.7084 15.3515 25.6805 16 25L15.7822 25.0434L15.0734 25.7264ZM11.328 44.936L10.7707 44.4423L10.8175 44.5067L11.3747 45L11.328 44.936ZM8.34886 41.8505C8.23463 41.7524 8.11832 41.6567 8 41.5636C8.14284 41.6943 8.26107 41.7937 8.34886 41.8505Z" fill="#202020"/>
<path d="M5.52103 40.34C4.94735 39.6577 6.46996 41.1258 5.32557 39.9432C5.27661 39.7878 5.89529 40.2609 6.41922 40.8323C6.32426 40.8395 5.8495 40.3337 6.13634 40.7202C6.56135 41.0237 6.66027 41.2011 6.60972 40.999C7.2734 41.5601 7.3967 41.574 7.86472 41.9375C7.08647 41.2352 5.6027 39.6122 4.55941 38.7761C3.94608 38.3528 4.13579 38.7896 4 38.9197C4.04678 39.0283 5.38167 40.3773 5.52103 40.34ZM6.38215 41.455C6.668 41.7505 6.76275 41.8338 6.95325 42C6.95048 41.9071 6.62042 41.6867 6.38215 41.455ZM5.44808 33.5429C5.48495 33.4691 5.99044 32.9225 5.84395 33.0025L5.06569 33.8193C5.25698 33.6362 5.34659 33.5935 5.44808 33.5429ZM4.72394 34.1773L5.06549 33.8193C4.97589 33.9047 4.86964 34.0146 4.72394 34.1773ZM5.49784 33.5169L5.44808 33.5429C5.44075 33.558 5.44689 33.56 5.49784 33.5169ZM18.3359 22.851C18.3613 22.8984 18.6969 22.5233 18.8654 22.3352C18.7165 22.4765 18.4996 22.667 18.3359 22.851ZM31.6493 9.40475L31.9943 9.12139C31.8652 9.21467 31.7994 9.26268 31.6493 9.40475ZM35.5148 3.60354C35.517 3.58728 35.5343 3.55847 35.5602 3.52183C35.5333 3.5573 35.5174 3.58493 35.5148 3.60354ZM35.5602 3.52163C35.7456 3.27825 36.4592 2.66646 36.6523 2.38389L36.636 2.42798L36.8454 2.194L36.9221 2.10817C36.9338 2.09485 36.9481 2.08015 36.9558 2.06976C36.9603 2.0618 36.9649 2.05389 36.9697 2.04605L37 2C36.9778 2.04252 36.8105 2.2036 36.6741 2.34038L36.2261 2.79129C35.929 3.09405 35.659 3.38015 35.5602 3.52163Z" fill="#202020"/>
</svg>
